<svg width="226" height="260" viewBox="0 0 226 260" fill="none" xmlns="http://www.w3.org/2000/svg">
<path d="M92.8451 9.13794C89.2757 9.13794 82.0831 9.84965 77.7644 12.3622C73.2778 14.9723 68.4313 19.5332 63.7458 23.1457C59.0776 26.7449 53.3344 32.4734 46.8589 38.0538C42.1195 42.1382 32.8889 50.7622 27.2545 57.6474C24.246 61.3239 22.4074 66.2688 18.6331 75.9578C15.9719 82.7896 12.3356 90.3375 10.896 95.3896C9.58097 100.005 8.38884 109.36 7.47764 123.394C7.17211 128.1 6.22136 130.98 5.68219 140.071C3.3471 179.44 7.65556 183.809 8.90645 188.128C10.2287 192.693 11.6023 196.749 13.2198 201.601C15.5599 208.622 17.7058 212.924 22.1917 217.777C28.7623 224.884 34.9378 230.868 39.9898 235.58C43.6475 238.992 48.6112 240.249 53.8196 244.38C61.7122 250.638 66.9431 250.688 71.2619 251.939C73.6522 252.631 77.7158 253.923 83.1022 254.101C86.3951 254.21 102.043 255.001 126.996 253.756C151.585 252.528 156.446 245.663 160.943 242.794C166.853 239.024 170.465 235.958 174.783 233.445C179.107 230.93 182.693 228.064 185.572 223.745C188.347 219.584 189.53 215.124 193.654 209.91C196.804 205.929 198.868 201.105 201.747 196.609C205.047 191.455 205.705 186.009 208.04 181.512C210.612 176.558 212.175 171.278 214.51 166.237C217.282 160.25 216.488 154.025 218.645 142.896C219.403 138.984 219.368 136.038 219.907 125.519C221.229 99.7308 219.378 81.0422 218.122 78.1738C215.814 72.9036 213.987 67.7569 212.191 62.3544C210.505 57.2802 203.225 53.7384 200.685 49.053C198.386 44.8111 194.943 40.4316 190.991 36.4687C187.58 33.0489 182.37 31.4382 177.156 27.664C172.745 24.4711 168.351 22.4448 163.854 19.9322C158.651 17.0247 152.909 14.8963 146.962 14.3517C142.307 13.9255 138.157 11.6613 133.838 10.2217C127.63 8.1522 118.747 8.42623 114.428 7.88166C109.966 7.31898 105.807 5.19118 93.4328 5.00247C90.6991 5.1804 89.6316 5.53625 88.5478 5.8975C87.4641 6.25875 86.3965 6.6146 83.1399 9.13794" stroke="#5A72D9" stroke-width="10" stroke-linecap="round"/>
<path d="M60.4946 56.5852C59.7829 57.297 58.3487 57.6636 55.6636 58.7312C51.0792 60.5539 49.7111 65.2012 49.5332 67.3525C49.0251 73.4957 50.0562 81.3657 51.3287 85.6845C51.6388 86.7371 50.4444 87.8358 50.6116 88.9195C50.9896 91.371 54.0138 92.5266 56.5209 93.0658C57.9397 93.3709 59.7398 93.2491 61.1902 92.7153C63.9905 91.6847 66.9431 87.8789 70.712 84.4659C79.4591 76.5447 100.372 83.1773 104.513 83.0102C106.787 82.9184 107.575 79.2413 108.654 76.9121C110.846 72.1758 106.519 67.3903 104.356 62.5323C102.528 58.4231 97.18 56.9519 92.8612 54.4393C88.5425 52.2719 84.2398 51.5601 71.8658 51.3714C69.1322 51.5494 68.0646 51.9052 64.808 54.4285" stroke="#5A72D9" stroke-width="10" stroke-linecap="round"/>
<path d="M146.762 50.1151C146.051 50.1151 144.261 50.1151 141.57 50.6489C138.793 51.1999 137.068 54.4178 135.451 56.747C132.429 61.098 133.111 66.2688 133.278 73.9898C133.388 79.0912 141.349 79.5756 146.913 81.2039C157.121 84.1909 161.838 83.889 167.052 87.6632C171.307 90.7435 176.568 91.0924 181.237 90.5586C183.124 90.3429 183.771 88.9572 184.316 87.8735C185.363 85.7896 185.583 82.1313 184.871 77.6454C184.24 73.6648 180.558 71.6929 179.48 68.8299C176.688 61.4177 179.835 57.6744 178.585 55.701C173.732 52.9943 165.159 52.2718 154.742 51.916C150.731 51.5601 149.307 50.8484 147.841 50.1151" stroke="#5A72D9" stroke-width="10" stroke-linecap="round"/>
<path d="M62.6513 98.6408C62.6513 101.854 63.363 108.324 64.8026 112.643C66.2816 117.08 70.1782 121.265 74.497 123.793C76.9091 125.206 80.9509 126.678 86.5151 126.5C90.3357 126.378 94.6135 123.82 99.1049 120.591C101.472 108.788 102.184 91.1032 103.262 88.9519C103.629 87.8681 103.629 86.8005 104.707 84.6223" stroke="#5A72D9" stroke-width="10" stroke-linecap="round"/>
<path d="M142.449 84.6223C142.093 86.7682 139.947 91.7825 136.351 99.153C135.075 101.769 134.901 105.089 135.256 108.858C135.759 114.182 141.716 116.951 145.668 120.914C148.974 124.229 154.289 124.866 160.398 125.422C165.333 125.87 169.386 120.941 172.632 116.989C175.926 112.978 176.956 108.368 178.746 103.871C179.113 101.186 179.469 98.6516 180.008 96.3224C180.191 95.0607 180.191 93.6373 180.191 92.1707" stroke="#5A72D9" stroke-width="10" stroke-linecap="round"/>
<path d="M143.527 114.816C143.527 114.104 143.527 112.314 144.239 109.446C145.1 105.975 148.908 104.755 151.06 104.038C153.211 103.321 156.09 102.954 159.32 103.132C164.005 105.1 167.24 107.979 169.214 109.591C170.119 110.492 170.831 111.559 171.564 114.816" stroke="#5A72D9" stroke-width="10" stroke-linecap="round"/>
<path d="M156.468 119.129L158.624 118.051" stroke="#5A72D9" stroke-width="10" stroke-linecap="round"/>
<path d="M68.0431 112.659C68.3989 110.513 71.2565 105.499 75.5753 102.065C79.8941 100.442 87.0436 99.7192 92.8289 101.865C93.9126 102.588 94.9802 103.299 98.2368 105.111" stroke="#5A72D9" stroke-width="10" stroke-linecap="round"/>
<path d="M85.2966 119.129C85.2966 118.774 85.2966 118.418 84.7628 118.056C84.2291 117.695 83.1615 117.339 82.6115 117.69C82.0616 118.04 82.0616 119.108 82.5954 119.836C83.1291 120.564 84.1967 120.919 86.375 121.286" stroke="#5A72D9" stroke-width="10" stroke-linecap="round"/>
<path d="M73.4348 162.263C76.6591 164.776 85.2319 165.498 91.7505 163.352C97.1503 161.575 101.45 156.527 105.769 153.647C109.79 150.967 114.39 150.768 124.079 150.757C126.263 151.113 127.331 151.825 128.414 152.547C129.498 153.27 130.566 153.982 133.822 155.793" stroke="#5A72D9" stroke-width="10" stroke-linecap="round"/>
<path d="M149.798 186.258C148.124 186.536 144.21 188.211 139.855 191.156C136.572 193.377 132.984 193.546 121.791 194.388C115.236 194.881 112.231 201.103 107.876 205.181C104.363 206.733 101.838 207.575 97.521 207.996C94.037 208.139 87.9273 208.139 81.6325 208.139" stroke="#5A72D9" stroke-width="10" stroke-linecap="round"/>
<path d="M75.7416 176.16C74.0669 176.16 70.1537 177.826 66.4971 181.196C65.6176 182.007 64.8182 182.875 64.389 184.276C63.4013 187.501 64.5152 190.458 65.7734 191.998C68.4574 195.283 73.7555 196.071 86.4924 196.079C90.1279 196.082 91.7227 193.841 93.2627 192.162C96.192 188.968 95.375 184.583 95.3792 183.043C95.3893 179.364 89.2233 177.859 85.8528 175.465C85.0071 175.04 84.1739 174.763 82.6339 174.619C81.0939 174.476 78.8722 174.476 75.7416 175.318" stroke="#5A72D9" stroke-width="10" stroke-linecap="round"/>
<path d="M129.601 218.237C133.506 218.237 140.238 217.682 144.034 215.582C149.264 212.688 152.037 207.314 153.998 203.805C156.327 199.636 156.809 196.365 157.785 195.103C158.286 194.454 159.594 194.674 160.444 195.229C164.352 197.783 164.105 203.072 164.803 207.554C166.232 216.722 163.263 221.856 162.287 225.799C161.82 227.684 159.628 228.891 157.25 229.872C150.332 232.725 140.289 230.305 136.346 227.646C135.5 226.939 134.667 226.383 133.821 225.82C132.976 225.256 132.143 224.7 130.443 224.128" stroke="#5A72D9" stroke-width="10" stroke-linecap="round"/>
</svg>
