<svg width="954" height="358" viewBox="0 0 954 358" fill="none" xmlns="http://www.w3.org/2000/svg">
<path d="M666.591 59.0098C665.758 57.8905 661.844 56.7713 656.934 56.3463C649.494 55.7024 640.553 56.7545 622.763 58.8583C605.553 60.8936 595.092 67.6947 587.38 71.0567C576.251 75.9073 571.512 77.5072 555.99 87.4417C548.408 92.2939 547.662 96.8629 542.483 106.659C539.039 113.172 536.167 120.965 534.61 126.456C533.112 131.738 533.625 146.414 535.712 158.822C539.831 183.312 547.343 190.242 550.448 195.329C552.759 199.116 557.441 203.454 564.031 210.039C573.277 219.28 579.608 220.571 584.661 222.966C586.547 223.859 588.318 224.51 595.273 227.573C612.513 235.166 625.346 239.658 627.858 240.916C636.886 245.437 655.533 246.087 665.867 248.915C671.454 250.444 678.877 251.153 691.505 252.142C705.721 253.255 711.732 255.647 729.215 256.072C741.186 256.363 750.174 257.053 761.855 257.751C772.414 258.383 792.42 258.727 803.415 259.152C814.41 259.577 815.798 259.855 826.234 259.859C836.669 259.864 856.109 259.586 866.679 259.304C880.404 258.938 884.25 256.775 888.879 255.799C897.775 253.923 903.32 252.012 910.612 248.237C918.301 244.258 926.294 239.136 930.83 234.63C935.198 230.29 939.507 222.591 941.775 217.937C943.777 213.828 944.304 209.665 946.399 194.727C948.742 178.029 946.551 166.459 946.13 164.36C944.825 157.849 943.462 140.455 942.065 132.381C941.449 128.821 937.319 124.399 933.098 119.48C926.828 112.172 916.835 107.551 913.04 105.863C908.22 103.721 903.926 101.66 899.44 99.9725C892.509 97.3652 886.539 94.6412 880.787 92.1208C876.746 90.3498 870.011 88.7503 864.373 87.6269C853.645 85.4892 833.269 84.8287 828.182 84.1176C824.36 83.5834 808.948 80.6209 799.43 78.5128C794.544 77.4305 788.919 76.9686 785.263 75.984C781.717 75.0291 776.582 74.9993 763.98 73.6024C757.502 72.8843 753.574 71.9193 748.104 71.3554C741.933 70.7193 738.14 69.3946 733.797 67.9934C724.855 65.108 719.07 64.6314 713.318 63.9203C708.94 63.379 704.478 62.1067 696.079 61.3956C690.425 60.9169 685.963 60.1375 682.593 59.7125C679.223 58.7321 675.865 58.1683 670.967 57.4698C668.594 57.3267 664.706 57.3267 660.7 57.3267" stroke="#5A72D9" stroke-width="10" stroke-linecap="round"/>
<path d="M601.791 236.578C599.839 237.966 595.362 244.118 592.542 248.486C589.944 252.512 587.215 255.917 578.821 271.86C575.809 277.58 572.909 280.322 569.126 284.252C567.531 285.91 565.335 286.229 562.958 286.091C556.937 285.739 548.268 282.022 542.617 281.045C537.841 279.219 535.317 278.1 533.499 277.258C532.514 276.972 531.404 276.972 529.417 276.131" stroke="#5A72D9" stroke-width="10" stroke-linecap="round"/>
<path d="M644.71 250.884C644.155 256.447 642.472 267.698 641.908 287.69C641.629 297.579 639.106 302.471 638.121 306.692C637.864 307.795 637.978 309.204 637.561 310.197C626.844 312.318 608.532 312.04 606.714 311.48C605.73 311.198 604.619 310.921 601.791 310.634" stroke="#5A72D9" stroke-width="10" stroke-linecap="round"/>
<path d="M856.782 265.191C857.624 267.143 858.179 271.62 862.235 283.797C864.297 289.987 866.308 293.787 867.02 298.554C867.771 303.592 868.833 309.776 868.85 314.405C868.874 321.003 854.291 322.399 850.062 324.234C848.383 325.21 846.692 326.06 845.013 326.759C844.167 327.179 843.334 327.735 841.634 329.149" stroke="#5A72D9" stroke-width="10" stroke-linecap="round"/>
<path d="M914.849 249.201C915.405 251.431 917.088 256.472 922.12 268.229C926.182 277.716 932.219 286.196 934.478 290.425C936.648 294.484 940.634 299.661 942.894 303.889C944.986 307.805 948.208 314.792 948.663 319.462C949.523 328.303 933.111 322.686 924.561 324.933C922.44 325.496 920.774 326.052 919.499 326.477C918.224 326.902 917.391 327.179 916.532 327.466" stroke="#5A72D9" stroke-width="10" stroke-linecap="round"/>
<path d="M589.168 100.246C590.001 101.365 593.914 103.595 597.71 105.569C601.963 107.781 605.141 110.328 608.511 112.861C610.19 113.98 611.881 114.83 613.56 115.529C614.406 115.949 615.239 116.505 617.781 118.76" stroke="#5A72D9" stroke-width="10" stroke-linecap="round"/>
<path d="M646.393 125.493C649.751 126.612 653.109 127.731 659.968 132.065C667.36 136.737 671.623 138.941 674.994 140.775C676.673 141.751 678.364 142.879 680.043 143.998C680.889 144.562 681.722 145.118 682.58 146.531" stroke="#5A72D9" stroke-width="10" stroke-linecap="round"/>
<path d="M611.89 164.204C610.215 163.926 606.857 162.807 593.569 162.66C587.365 162.591 584.135 166.157 581.181 170.07C577.486 174.965 581.03 181.027 582.7 183.539C588.421 192.141 594.47 193.086 598.69 195.333C603.349 197.814 606.824 199.263 615.344 201.645C626.209 204.682 634.603 201.519 636.282 200.26C640.016 197.462 641.344 193.675 642.043 190.305C642.788 186.71 638.836 182.735 636.303 179.365C633.87 176.127 630.707 173.747 627.05 171.227C623.68 169.54 620.322 167.301 616.952 165.891C616.106 165.61 615.273 165.332 612.731 163.363" stroke="#5A72D9" stroke-width="10" stroke-linecap="round"/>
<path d="M29.9809 160.621C28.5352 156.284 27.0894 151.946 23.634 140.857C20.1785 129.768 14.757 112.058 11.422 99.8622C6.44591 81.6655 5.16269 73.0233 4.06745 68.834C3.09467 65.1131 12.7308 79.4085 27.6863 105.678C35.4647 119.341 41.6343 125.179 46.5574 128.837C48.3004 130.132 49.6733 128.158 50.2319 125.606C51.5558 119.558 50.4291 112.824 48.6164 102.841C47.3233 95.719 44.6352 84.5452 42.9705 71.364C41.3057 58.1827 40.5828 43.3641 40.7526 33.0195C40.9223 22.675 42.0066 17.2535 43.1238 11.6678" stroke="#5A72D9" stroke-width="8" stroke-linecap="round"/>
<path d="M105.553 81.7633C99.7259 94.1067 97.5135 112.386 98.9757 118.799C99.2732 120.104 99.704 121.17 101.336 121.187C105.983 121.233 109.923 117.917 112.288 114.829C118.406 106.841 118.323 97.8853 118.515 86.7302C118.556 84.3306 117.973 82.53 116.883 80.6954C115.793 78.8609 113.986 77.0537 111.971 76.1228C104.107 75.5533 94.6659 79.9014 88.0452 85.2133C86.9444 86.4947 85.8602 87.9405 84.743 89.43" stroke="#5A72D9" stroke-width="8" stroke-linecap="round"/>
<path d="M159.219 25.9059C159.581 28.7974 159.942 31.6888 162.116 41.3105C164.29 50.9322 168.266 67.1966 170.495 76.1173C172.724 85.0381 173.085 86.1224 173.458 87.2395" stroke="#5A72D9" stroke-width="8" stroke-linecap="round"/>
<path d="M141.696 73.0014C146.756 71.5556 160.928 65.3894 179.175 56.4522C185.856 52.9365 187.301 51.4908 189.131 50.0232C190.96 48.5555 193.128 47.1098 195.362 45.6203" stroke="#5A72D9" stroke-width="8" stroke-linecap="round"/>
<path d="M203.029 12.763C204.124 31.2617 204.847 59.0918 206.304 66.7804C207.109 71.028 213.237 59.8694 216.15 57.8651C218.906 55.9694 223.083 55.4775 228.001 55.8389C232.672 56.1822 236.96 59.8365 240.607 64.2066C242.085 66.408 242.808 68.5766 243.542 70.778C244.276 72.9794 244.999 75.148 246.839 79.5728" stroke="#5A72D9" stroke-width="8" stroke-linecap="round"/>
<path d="M282.982 89.43C282.62 85.0928 282.259 80.7557 281.711 75.8107C281.164 70.8656 280.441 65.4442 279.696 59.8585" stroke="#5A72D9" stroke-width="8" stroke-linecap="round"/>
<path d="M264.363 4.0011C265.086 6.16968 265.808 8.33826 266.181 10.7204C266.553 13.1026 266.553 15.6326 266.553 18.2392" stroke="#5A72D9" stroke-width="8" stroke-linecap="round"/>
<path d="M316.934 88.3348C320.198 67.6237 326.408 44.9194 329.869 40.3577C331.29 38.4851 332.969 38.326 334.256 38.3205C339.512 38.2982 345.739 44.5032 351.413 50.516C357.82 64.2175 358.915 71.1504 359.463 76.6102C359.649 79.54 359.649 82.7928 359.649 86.1443" stroke="#5A72D9" stroke-width="8" stroke-linecap="round"/>
<path d="M72.6953 169.383C73.4182 173.72 75.9592 186.436 80.6906 206.473C84.9841 224.656 90.2083 233.991 92.9354 235.634C96.2351 237.622 100.427 235.108 103.16 232.923C109.922 227.516 114.665 215.427 116.138 206.287C116.608 203.373 115.048 200.433 113.778 197.514C112.669 194.967 107.404 196.391 103.028 197.848C96.4511 202.579 90.5916 208.8 88.5928 211.528C87.3168 213.17 85.5097 215.339 83.6478 217.573" stroke="#5A72D9" stroke-width="8" stroke-linecap="round"/>
<path d="M147.172 204.43C150.063 209.49 154.444 215.35 159.548 220.098C161.503 221.917 163.206 221.231 164.854 219.78C173.064 212.553 173.808 192.514 175.462 182.361C175.648 181.08 175.648 179.634 175.829 178.347C176.01 177.06 176.371 175.976 176.743 174.859" stroke="#5A72D9" stroke-width="8" stroke-linecap="round"/>
<path d="M215.077 137.621C214.354 143.403 213.982 163.731 213.801 191.282C213.259 204.014 212.525 207.705 211.797 209.89C211.43 210.991 211.068 212.075 209.601 213.192" stroke="#5A72D9" stroke-width="8" stroke-linecap="round"/>
<path d="M198.648 193.478C202.262 192.755 205.877 192.032 213.341 188.226C220.805 184.42 232.009 177.553 238.143 173.473C244.276 169.394 244.999 168.309 245.744 167.192" stroke="#5A72D9" stroke-width="8" stroke-linecap="round"/>
<path d="M308.172 127.763C308.895 144.816 311.086 168.265 311.639 177.559C311.82 179.952 312.181 181.759 312.367 184.497C312.553 187.235 312.553 190.849 312.553 194.573" stroke="#5A72D9" stroke-width="8" stroke-linecap="round"/>
<path d="M303.791 172.668C307.406 172.668 311.02 172.668 315.412 171.765C319.804 170.861 324.864 169.054 332.268 166.097" stroke="#5A72D9" stroke-width="8" stroke-linecap="round"/>
<path d="M351.982 122.287C354.523 139.001 357.82 164.18 359.994 174.076C364.092 192.732 373.515 152.965 375.333 151.503C376.235 150.777 377.874 151.486 378.98 152.215C384.826 156.064 388.476 165.703 390.31 170.461C390.677 171.562 391.038 172.646 391.586 173.747C392.134 174.848 392.857 175.932 394.697 179.24" stroke="#5A72D9" stroke-width="8" stroke-linecap="round"/>
<path d="M401.268 163.906C418.354 151.924 433.753 136.909 434.667 133.448C435.093 131.838 434.498 130.348 433.589 128.881C432.68 127.413 431.234 125.967 429.585 125.222C427.937 124.478 426.13 124.478 423.573 125.562C417.442 128.161 412.604 134.302 409.685 139.773C407.983 142.963 407.478 146.722 407.653 152.543C412.209 165.352 415.857 169.733 419.131 172.285C420.96 173.391 423.129 174.114 427.554 174.859" stroke="#5A72D9" stroke-width="8" stroke-linecap="round"/>
<path d="M158.124 353.383C156.679 347.6 155.934 325.104 156.114 294.81C156.214 278.157 158.847 270.528 161.027 267.248C164.652 264.691 169.055 263.212 173.425 262.303C175.626 261.755 177.795 261.032 181.124 260.288" stroke="#5A72D9" stroke-width="8" stroke-linecap="round"/>
<path d="M140.6 310.669C144.938 311.03 149.275 311.392 156.93 308.325C164.586 305.258 175.429 298.753 181.738 294.678C188.046 290.604 189.492 289.158 190.981 287.669" stroke="#5A72D9" stroke-width="8" stroke-linecap="round"/>
<path d="M193.172 318.336C196.063 324.118 200.444 330.35 205.367 335.46C208.021 338.214 211.769 338.05 215.597 337.689C218.534 337.411 221.626 334.414 225.274 331.5C228.581 325.652 230.038 316.211 230.591 303.413C230.772 300.472 231.133 297.942 231.505 295.336" stroke="#5A72D9" stroke-width="8" stroke-linecap="round"/>
<path d="M250.125 322.717C253.016 307.81 259.971 294.251 262.337 292.97C263.477 292.352 265.064 293.495 266.531 295.494C271.657 307.35 273.848 316.485 274.943 321.041C275.315 323.067 275.315 324.513 275.315 326.002" stroke="#5A72D9" stroke-width="8" stroke-linecap="round"/>
<path d="M300.506 324.907C300.133 305.664 302.324 283.299 304.142 281.837C305.045 281.111 306.683 281.82 307.97 282.549C312.542 287.647 318.358 297.11 322.219 302.986C322.772 304.086 323.133 305.171 324.601 306.288" stroke="#5A72D9" stroke-width="8" stroke-linecap="round"/>
<path d="M346.506 308.478C345.783 305.226 345.06 301.973 344.688 299.574C344.315 297.175 344.315 295.73 344.315 294.24" stroke="#5A72D9" stroke-width="8" stroke-linecap="round"/>
<path d="M323.506 234.002V235.097" stroke="#5A72D9" stroke-width="8" stroke-linecap="round"/>
<path d="M362.935 275.621C371.653 264.362 380.458 251.175 379.374 249.166C376.244 243.363 365.541 254.045 361.297 259.176C357.66 263.574 365.848 271.218 374.758 284.509C377.237 288.208 380.042 290.538 382.068 291.842C385.187 293.848 388.837 292.784 392.117 291.875C393.59 291.327 394.675 290.604 396.137 289.328C397.599 288.052 399.406 286.245 401.268 284.383" stroke="#5A72D9" stroke-width="8" stroke-linecap="round"/>
<path d="M440.697 203.335C428.715 216.741 415.145 239.456 415.32 243.465C415.697 252.101 431.519 254.067 440.302 258.081C443.891 259.721 446.162 263.552 447.805 267.56C449.069 270.644 447.641 276.673 444.557 287.22C438.221 301.381 431.234 313.188 425.949 319.568C423.556 322.333 421.749 324.14 419.887 326.002" stroke="#5A72D9" stroke-width="8" stroke-linecap="round"/>
</svg>
