<svg width="819" height="455" viewBox="0 0 819 455" fill="none" xmlns="http://www.w3.org/2000/svg">
<path d="M2.95836 125.333C3.59319 125.254 5.97677 125.093 7.50634 125.371C8.64896 125.578 9.66115 126.209 10.6601 126.529C12.382 127.08 14.6918 126.928 15.6908 127.287C16.9188 127.729 17.5689 128.365 17.9283 128.763C18.753 129.676 18.6876 131.235 18.7296 133.867C18.75 135.15 17.4947 135.868 16.6167 136.351C15.3427 137.051 13.2641 136.75 10.5152 136.871C9.66328 136.908 9.18923 136.992 8.71131 136.793C7.6854 136.366 6.7194 133.736 6.03427 131.845C5.63722 130.749 4.64005 129.889 3.95851 128.89C3.60394 128.37 3.59798 127.731 3.35962 127.332C3.20031 127.17 2.96315 127.091 2.80145 126.932C2.63975 126.772 2.5607 126.535 2.47925 126.291" stroke="#FF0000" stroke-width="4" stroke-linecap="round"/>
<path d="M2 124.135C2 121.445 2.31621 115.995 2.79653 115.075C3.38543 113.947 5.34421 112.804 6.54798 111.92C7.51419 111.21 8.46324 110.245 9.82032 108.928C10.7458 108.029 11.817 107.687 13.1741 107.566C14.6203 107.437 17.2358 105.933 20.356 104.377C21.8147 103.65 22.7552 102.896 23.8356 102.377C25.067 101.786 26.43 101.698 27.4289 100.901C28.6927 99.8937 29.7838 98.5885 30.7432 97.3488C31.6598 96.1643 33.3723 94.9951 34.9738 93.7159C36.169 92.7611 36.6543 91.7994 37.4113 91.0388C38.2887 90.1573 39.8404 89.0062 41.0837 88.0444C42.6611 86.8241 45.5897 85.571 46.8725 84.8104C48.9466 83.5807 51.3439 82.2938 52.5416 81.6961C53.8523 81.0421 55.172 79.5868 57.2082 77.9866C60.2559 75.5915 61.961 75.0305 63.1624 74.1908C65.1336 72.8131 66.915 71.5138 68.0721 70.9161C70.031 69.9042 71.2271 69.4392 72.4248 68.6403C73.8741 67.6737 76.0182 67.5228 77.852 66.8436C79.5833 66.2024 81.0441 64.811 82.4862 64.048C83.7284 63.3908 85.5957 63.0526 88.0715 61.7351C90.246 60.5779 92.9453 60.2546 94.264 59.9348C95.9018 59.5376 98.4455 58.8987 100.491 58.6963C102.181 58.5291 106.725 56.9871 109.715 56.1822C111.498 55.7025 112.828 55.8612 114.465 55.4635C116.7 54.9202 118.338 54.3472 119.616 53.7878C122.267 52.6274 124.169 52.1097 125.526 51.7899C126.586 51.5401 128.313 50.9934 130.435 50.6316C132.449 50.2882 133.751 50.1932 134.711 49.8734C135.869 49.4875 137.977 49.0003 139.501 47.9989C139.822 47.7977 140.138 47.6396 140.419 47.5186C140.701 47.3976 140.938 47.3186 141.422 47.2371" stroke="#FF0000" stroke-width="4" stroke-linecap="round"/>
<path d="M141.901 47.2371C142.138 46.8395 143.094 46.0441 144.014 45.4824C144.773 44.6044 145.571 43.6486 146.37 42.888C146.532 42.6879 146.611 42.4508 146.692 42.2064" stroke="#FF0000" stroke-width="4" stroke-linecap="round"/>
<path d="M149.327 44.3624C149.327 43.7276 149.169 42.4508 148.889 40.1822C148.423 36.4072 148.609 31.4695 148.847 28.4367C148.989 26.6296 149.404 25.0446 149.606 23.5665C149.816 22.0394 151.158 20.3349 152.159 18.9742C153.041 17.7761 153.874 16.7368 154.794 15.6204C155.671 14.5558 155.954 13.4644 156.472 12.3062C157.011 11.1037 158.823 10.1106 160.62 9.35005C161.823 8.84061 162.58 7.71508 163.617 6.95448C164.599 6.23409 165.847 5.07995 167.091 4.39842C168.397 3.68229 170.241 3.24016 171.403 2.72152C172.65 2.16471 174.313 2.04238 178.06 2.00045C179.917 1.97967 181.816 2.67481 183.22 3.55398C184.971 4.65086 185.098 6.0286 185.499 7.18685C185.868 8.25043 186.296 9.69861 186.737 10.9C187.263 12.336 187.417 15.194 187.139 17.2878C186.882 19.2248 185.821 21.5183 185.263 22.5592C184.592 23.811 183.11 25.4279 182.389 26.6317C181.746 27.7042 181.351 29.026 180.99 30.9365C180.275 34.7125 181.586 36.0498 181.906 37.1722C182.065 37.6501 182.305 38.1316 182.584 38.6095C182.705 38.8502 182.784 39.0874 182.865 39.3318" stroke="#FF0000" stroke-width="4" stroke-linecap="round"/>
<path d="M150.046 78.619C150.125 77.9842 150.286 76.5493 150.524 75.4689C150.794 74.2442 151.8 73.3536 151.804 71.0826C151.809 69.0759 149.974 67.6905 149.17 66.3262C148.276 64.8086 147.89 61.323 148.327 57.5872C148.507 56.0521 149.246 54.6682 150.877 51.4437C152.232 48.7652 152.518 47.721 153.118 46.5232C153.68 45.4028 153.956 44.3672 154.794 43.209C155.494 42.242 156.509 41.8088 157.508 41.2111C158.737 40.4761 159.623 39.7342 160.821 38.6574C161.994 37.6035 163.217 37.0991 164.216 36.4595C165.456 35.6651 166.729 34.8616 168.207 34.5813C169.432 34.3491 171.036 34.3011 172.752 34.4196C173.999 34.5058 174.634 36.0546 175.675 36.4559C176.713 36.856 177.988 37.1757 178.989 37.7315C180.229 38.4198 180.704 40.0456 181.703 41.2434C182.702 42.4406 183.819 43.0784 184.301 44.1193C184.769 45.1285 185.179 46.2741 185.46 47.4719C185.734 48.6463 185.898 50.1022 186.417 52.0211C186.865 53.6814 186.938 54.9748 187.335 57.1703C187.629 58.7939 187.656 60.4031 187.855 61.8046C188.131 63.7451 187.656 65.5105 187.14 66.8772C186.611 68.2786 185.026 69.2715 184.345 70.4298C183.627 71.6492 183.186 73.5021 183.184 75.9743C183.182 77.647 184.14 79.4862 184.342 81.0098C184.537 82.4782 185.021 86.098 184.545 88.3965C184.203 90.0416 183.268 92.0294 182.628 93.3865C182.124 94.4559 181.749 95.3832 181.191 96.3426C180.632 97.3031 179.995 98.0998 179.274 99.2161C178.421 100.538 177.997 102.249 177.557 103.489C177.155 104.617 176.244 106.475 175.68 107.881C175.161 109.173 173.767 110.394 171.973 111.435C170.635 112.211 169.536 112.555 168.456 113.113C166.329 114.212 162.747 113.436 161.629 112.64C160.659 111.95 159.715 110.964 158.674 110.203C157.689 109.484 157.712 107.855 157.513 105.979C157.053 101.643 157.712 99.082 157.95 97.2685C158.125 95.9406 158.349 94.6741 158.192 93.7147C158.029 92.7166 157.554 91.3251 157.234 89.9225C156.995 88.8727 156.198 87.9665 155.399 87.0071C154.703 86.1716 154.76 84.8523 154.16 83.8929C153.96 83.415 153.8 82.9334 153.641 82.4555C153.56 82.2148 153.481 81.9776 153.4 81.7333" stroke="#FF0000" stroke-width="4" stroke-linecap="round"/>
<path d="M157.712 68.7972C157.712 67.9228 157.554 66.0136 157.433 63.4994C157.208 58.8273 157.712 56.7475 158.149 55.3078C158.653 53.6468 159.7 51.7216 161.021 50.3549C162.064 49.2767 163.294 47.6444 164.058 46.4825C164.491 45.8241 165.136 45.4812 165.89 45.3614C168.299 44.979 170.078 45.5602 171.96 45.9974C172.576 46.1406 173.041 46.5161 173.44 46.994C174.173 47.8724 174.558 50.0974 175.436 52.1408C176.359 54.2913 176.714 55.7749 177.115 57.1727C177.641 59.0051 177.595 62.2238 177.396 64.7188C177.148 67.8304 176.397 72.9367 176 74.3429C175.681 75.4693 173.939 77.7231 172.527 79.3341C171.376 80.6476 170.571 82.6867 170.17 83.845C169.678 85.2646 168.497 86.9987 167.616 89.35C167.057 90.7526 166.259 92.9781 165.898 94.6238C165.857 95.0622 165.857 95.6946 165.857 96.3462" stroke="#FF0000" stroke-width="4" stroke-linecap="round"/>
<path d="M72.6692 99.2209C73.1459 99.0628 74.1017 98.5837 74.8228 97.7872C75.5855 96.9446 76.3392 95.7952 77.1776 94.4741C77.803 93.4888 78.4138 92.36 79.3337 90.9215C79.9939 89.889 81.0489 89.3224 82.2071 88.9212C83.2943 88.5445 84.5608 88.0432 85.6017 87.7234C87.6651 87.0894 91.1103 87.6407 92.3883 87.8408C93.4299 88.0038 93.9849 89.6339 94.5467 90.7921C95.1995 92.1382 96.8596 92.9876 98.0969 93.8273C99.596 94.8445 99.8157 96.1019 100.495 97.0218C101.414 97.7021 102.29 98.0231 103.008 98.0627C103.33 98.1022 103.567 98.1812 104.051 98.2627" stroke="#FF0000" stroke-width="4" stroke-linecap="round"/>
<path d="M73.867 100.179C73.7089 100.656 73.2298 101.928 73.2669 103.448C73.3042 104.975 75.06 106.163 75.8206 107.083C76.5901 108.014 77.9347 108.243 79.0127 108.602C80.5722 109.122 81.6862 109.44 82.8061 109.76C84.3587 110.204 85.9982 109.685 88.6297 109.403C90.145 109.241 91.1103 108.405 92.0697 107.887C93.0835 107.339 94.7803 107.131 95.8236 106.37C96.6927 105.737 97.0226 104.496 97.6203 102.98C98.3809 102.098 98.6204 101.379 98.9773 100.901C99.2552 100.661 99.7296 100.423 100.697 99.7" stroke="#FF0000" stroke-width="4" stroke-linecap="round"/>
<path d="M14.6965 139.227C14.7756 139.704 15.0942 140.659 15.6524 141.658C16.2805 142.783 16.5315 143.774 17.5269 144.892C18.3379 145.804 19.2433 146.49 20.4004 147.01C22.4144 147.915 24.6573 150.39 28.4986 153.709C30.17 155.153 31.2211 155.833 32.2201 156.433C33.862 157.419 36.568 158.07 37.8892 158.589C38.9483 159.005 40.0847 159.268 41.4814 159.588C42.8651 159.905 44.1572 159.987 48.3375 160.029C50.248 160.048 51.8182 159.115 53.4197 158.791C53.7419 158.712 53.979 158.554 54.3384 158.354C54.6977 158.154 55.172 157.917 56.3794 157.673" stroke="#FF0000" stroke-width="4" stroke-linecap="round"/>
<path d="M52.5466 160.547C52.7047 161.103 53.5001 162.061 54.4595 162.86C55.284 163.547 56.691 164.136 57.8923 164.698C59.2858 165.349 60.2077 165.736 61.4054 166.056C62.6794 166.396 63.801 166.694 65.5953 167.174C66.8822 167.517 67.8735 167.811 68.8724 168.172C69.9684 168.569 71.7782 168.453 73.1844 168.691C74.4456 168.905 75.5393 169.33 76.8964 169.649C78.0815 169.929 79.1326 170.767 80.3304 170.888C80.9753 170.953 81.6096 171.167 86.6739 171.287C91.4207 171.399 100.592 171.327 105.474 171.288C110.674 171.246 112.738 171.088 115.491 171.167C117.656 171.229 119.694 171.725 121.492 171.846C122.997 171.947 125.353 172.286 127.045 172.723C128.137 173.005 129.358 173.8 130.438 174.24C131.615 174.72 132.554 175.237 133.513 175.678C134.581 176.168 135.27 177.312 136.148 177.794C137.108 178.193 138.696 179.147 140.259 179.91C140.62 180.031 141.015 180.11 141.662 180.431" stroke="#FF0000" stroke-width="4" stroke-linecap="round"/>
<path d="M142.108 181.196C142.687 181.847 143.409 182.571 144.786 183.765C146.049 184.861 147.324 186.195 148.557 187.03C149.525 187.687 150.37 188.444 151.456 189.422C153.566 191.321 157.391 192.425 158.854 193.556C160.125 194.539 162.116 195.549 163.529 196.42C164.998 197.326 166.323 198.812 167.482 200.008C168.397 200.954 169.512 201.714 171.647 204.316C172.81 205.734 175.873 208.87 177.671 211.317C178.933 213.036 179.301 214.039 180.063 215.234C181.163 216.958 181.911 217.954 182.853 219.185C184.786 221.712 186.192 223.101 186.735 224.263C187.307 225.487 187.715 226.438 188.222 227.49C188.799 228.687 189.956 231.572 190.616 233.182C191.009 234.143 191.918 235.57 192.644 236.77C193.115 237.549 193.875 239.479 194.528 241.942C195.348 245.039 196.273 248.408 196.669 249.855C197.516 252.951 198.731 254.421 199.389 255.624C200.043 256.82 200.332 258.267 200.622 259.358C200.945 260.569 200.984 261.891 201.022 268.256C201.043 271.749 200.697 275.382 200.48 277.805C200.296 279.846 199.174 280.82 198.451 282.231C197.718 283.661 197.724 284.955 197.507 285.282C196.782 285.608 196.059 286.476 195.008 287.275C194.752 287.422 194.537 287.494 194.315 287.568" stroke="#FF0000" stroke-width="4" stroke-linecap="round"/>
<path d="M194.75 286.915C194.535 287.205 193.667 287.637 192.976 288.435C192.219 289.308 191.417 289.956 190.62 290.647C189.632 291.503 188.663 292.28 187.973 293.003C187.135 293.88 186.488 294.959 186.014 295.831C185.54 296.701 185.109 297.57 185.069 298.405C185.059 298.617 185.392 298.731 185.61 298.734C187.225 298.75 189.09 296.996 191.044 296.957C192.254 296.934 193.223 297.574 194.13 297.791C195.192 298.044 196.051 298.37 197.103 298.841C198.036 299.259 199.309 300.037 201.702 300.943C203.031 301.446 204.025 302.068 205.403 302.972C206.819 303.901 207.654 305.109 208.415 306.235C209.054 307.18 209.829 308.011 210.301 309.062C211.107 310.855 211.426 311.494 211.751 311.784C212.382 312.348 213.453 311.352 214.324 311.062C215.443 310.689 217.077 310.413 218.6 310.119C220 309.849 221.284 309.469 222.516 308.743C223.413 308.215 224.33 308.016 225.273 307.656C226.767 307.085 227.375 306.206 228.246 305.697C229.07 305.215 230.346 305.118 231.292 304.537C232.184 303.989 233.031 303.521 234.334 302.726C236.414 301.457 237.381 301.203 238.794 300.405C239.946 299.755 240.862 298.884 241.805 298.41C243.01 297.803 244.194 297.287 245.394 296.67C246.409 296.149 247.457 295.26 248.548 294.676C249.893 293.956 251.086 293.589 252.751 292.972C254.265 292.412 256.293 290.983 258.299 290.325C259.819 289.826 260.657 289.456 261.709 288.947C262.6 288.515 264.42 288.225 265.805 287.895C267.497 287.492 268.27 286.485 269.358 285.577C271.086 284.136 273.778 282.643 275.374 281.735C277.69 280.416 279.212 278.658 280.561 277.962C282.62 276.899 285.02 275.895 286.18 275.244C287.502 274.501 288.788 274.373 290.565 274.01C292.533 273.609 296.527 271.192 298.689 270.529C300.186 270.069 302.205 269.587 308.673 269.549C310.77 269.537 311.92 270.018 313.73 270.706C316.418 271.832 317.432 272.267 318.303 272.377C318.522 272.413 318.737 272.484 319.394 272.558" stroke="#FF0000" stroke-width="4" stroke-linecap="round"/>
<path d="M320.264 273.428C321.421 273.718 322.579 274.151 324.246 274.696C325.444 275.087 327.216 275.382 328.417 276.001C329.896 276.763 331.497 276.617 335.293 278.424C338.136 279.777 342.343 280.307 345.058 281.221C346.385 281.669 347.886 281.621 349.479 281.73C350.667 281.812 352.376 282.13 353.579 282.346C354.13 282.445 355.637 282.565 357.809 282.601C359.41 282.627 361.795 282.854 364.836 283.035C368.564 283.256 370.291 283.578 372.246 283.833C372.897 283.918 375.134 284.229 378.717 284.773C382.803 285.393 385.575 285.393 389.173 285.934C391.238 286.245 392.984 286.48 394.362 286.661C397.242 287.038 399.862 286.915 401.652 287.096C402.992 287.231 404.296 287.35 406.072 287.711C408.107 288.125 409.442 288.003 410.679 288.219C412.408 288.522 413.723 288.582 414.74 289.052C415.899 289.589 416.986 289.956 419.628 291.008C421.248 291.653 422.207 292.206 423.152 292.75C424.01 293.245 425.609 294.233 427.68 294.962C429.317 295.538 430.329 295.978 431.381 296.448C431.852 296.63 432.505 296.776 433.301 296.921C433.666 296.993 433.953 297.065 434.684 297.139" stroke="#FF0000" stroke-width="4" stroke-linecap="round"/>
<path d="M434.032 298.227C434.391 298.009 435.55 297.866 436.601 297.611C438.473 297.158 439.97 297.213 441.712 297.103C443.241 297.007 445.121 296.85 447.712 296.741C449.871 296.65 453.749 296.704 456.176 296.776C461.477 296.933 464.334 298.514 465.894 298.842C466.931 299.061 468.249 299.528 469.268 300.038C470.372 300.59 471.081 301.703 471.879 302.322C472.893 302.793 474.053 303.373 475.104 304.025C475.36 304.172 475.575 304.244 475.797 304.318" stroke="#FF0000" stroke-width="4" stroke-linecap="round"/>
<path d="M476.885 303.23C477.1 302.941 477.968 302.508 478.983 301.927C480.438 301.094 481.449 300.985 482.681 300.404C483.21 300.155 483.77 299.823 484.744 299.498C486.195 299.014 488.903 298.162 493.022 296.679C498.06 294.866 501.39 294.311 502.077 294.275C503.317 294.211 505.294 293.372 507.044 292.791C508.462 292.32 510.45 291.918 513.163 291.414C517.23 290.657 521.096 290.178 523.43 289.781C524.969 289.519 525.968 289.308 527.13 289.128C528.283 288.948 530.31 288.873 532.565 288.512C534.436 288.212 536.762 288.22 538.225 287.859C540.162 287.381 543.371 286.554 544.496 286.011C545.564 285.496 546.272 284.67 547.324 283.873C548.369 283.081 549.461 282.421 550.407 282.131C551.284 281.861 552.146 281.551 553.125 281.297C553.882 281.26 554.541 281.188 555.011 281.043C555.265 280.97 555.552 280.898 555.848 280.824" stroke="#FF0000" stroke-width="4" stroke-linecap="round"/>
<path d="M433.379 300.402C433.164 301.553 432.296 304.309 430.702 305.655C429.606 306.582 427.728 306.493 426.243 307.07C424.944 307.576 423.168 307.581 421.456 307.761C420.331 307.88 419.462 308.016 418.016 308.196C414.124 308.682 412.649 308.451 410.552 308.631C407.4 308.903 404.959 308.74 402.621 308.849C397.058 309.107 393.067 308.957 391.806 309.066C386.78 309.5 384.875 308.668 383.57 308.271C382.147 307.838 380.959 307.654 379.366 307.509C378.288 307.41 377.479 306.858 376.355 306.675C375.076 306.465 374.216 305.988 373.344 305.66C372.523 305.35 371.605 305.262 370.734 304.971C369.816 304.665 368.777 304.465 367.906 304.065C367.006 303.652 366.167 303.447 365.115 303.231C364.092 303.02 362.978 302.434 361.852 302.143C360.929 301.905 359.933 301.564 357.724 301.526C356.566 301.506 355.439 301.925 354.419 302.177C353.932 302.298 353.548 302.649 353.042 302.758C351.742 303.038 350.723 301.638 349.166 301.418C347.333 301.159 346.372 300.476 345.321 300.222C343.592 299.803 342.674 300.546 341.875 301.088C341.067 301.637 341.364 303.152 341.761 304.097C342.122 304.955 342.378 305.836 343.101 306.564C343.724 307.19 348.573 306.275 351.548 306.456C352.543 306.516 353.542 307.071 354.413 307.398C355.432 307.78 356.37 308.233 357.241 308.414C358.1 308.592 358.98 308.812 360.212 308.922C360.72 309.029 361.157 309.175 362.237 309.284C363.102 309.321 364.61 309.321 366.38 309.538" stroke="#FF0000" stroke-width="4" stroke-linecap="round"/>
<path d="M332.881 311.061C332.159 312.29 331.289 313.593 330.599 314.358C330.456 314.516 330.488 314.755 330.775 314.866C332.341 315.47 334.173 315.194 336.17 315.375C340.618 315.777 342.513 315.194 343.898 315.013C345.495 314.905 346.148 314.759 346.582 314.723C346.801 314.687 347.016 314.615 347.673 314.541" stroke="#FF0000" stroke-width="4" stroke-linecap="round"/>
<path d="M333.751 310.626C334.038 310.337 335.195 310.191 336.501 310.01C337.455 309.879 341.042 309.538 343.355 309.322C344.425 309.222 345.563 308.96 346.943 308.814C347.978 308.705 348.899 308.09 350.132 307.835C350.638 307.798 351.427 307.798 351.942 307.762C352.456 307.726 352.671 307.654 353.111 307.798" stroke="#FF0000" stroke-width="4" stroke-linecap="round"/>
<path d="M348.76 315.629C348.688 316.062 348.112 317.073 346.953 318.199C345.75 319.367 344.632 319.471 343.58 319.761C342.637 320.021 341.804 320.702 340.716 321.247C339.618 321.797 338.541 322.081 337.489 322.588C336.482 323.073 335.713 323.965 335.203 324.798C334.863 325.353 334.477 325.851 334.26 326.428C333.954 327.24 334.401 328.026 334.799 328.46C335.513 329.238 336.787 329.838 337.988 330.167C339.424 330.559 341.064 329.699 342.412 329.515C343.502 329.366 344.91 328.755 345.929 328.5C346.781 328.288 347.812 328.102 348.972 327.74C351.033 327.097 352.019 326.723 352.89 326.471C353.842 326.195 354.629 325.709 356.077 325.455C358.112 325.274 362.138 324.983 364.961 325.163C365.36 325.2 365.862 325.2 366.598 324.765" stroke="#FF0000" stroke-width="4" stroke-linecap="round"/>
<path d="M377.039 321.72C376.175 322.007 374.433 322.877 373.526 323.277C372.383 323.782 371.388 324.4 370.552 325.017C369.767 325.596 368.995 325.997 368.052 326.359C366.657 326.894 365.875 327.95 365.15 328.715C364.458 329.444 364.279 330.634 363.988 331.505C363.844 331.939 363.698 332.377 363.589 333.062C363.515 333.527 363.552 334.25 364.091 334.619C366.816 336.491 369.13 334.554 370.075 333.977C371.074 333.366 372.754 333.105 373.881 332.815C375.349 332.437 376.813 332.092 377.942 331.727C378.981 331.392 380.006 330.86 380.951 330.567C381.881 330.278 382.69 329.699 383.598 328.937C384.482 328.195 385.518 328.32 391.12 328.282C392.627 328.271 393.134 328.535 395.47 328.644C397.589 328.742 401.611 328.681 403.969 328.609C407.939 328.488 409.229 328.102 410.461 327.992C411.49 327.901 412.923 327.667 414.413 327.413C415.529 327.222 417.412 327.158 419.881 326.797C423.623 326.25 424.817 326.218 426.878 325.89C430.79 325.266 431.852 325.492 433.372 325.237C434.953 324.973 435.985 324.839 436.892 324.549C438.065 324.173 439.248 323.969 440.371 323.823C441.751 323.644 443.159 323.173 444.252 322.773C445.183 322.432 446.566 321.724 447.804 321.105C449.072 320.472 451.347 320.202 452.736 319.944C453.764 319.753 455.771 319.545 457.445 319.364C460.332 319.053 461.653 319.688 462.886 319.726C464.021 319.761 465.277 318.966 466.403 318.711C467.375 318.492 468.684 317.665 469.739 317.081C470.894 316.441 472.09 314.698 473.039 313.313C474.249 311.547 474.636 309.978 474.781 308.89C475.216 307.8 475.649 306.789 475.978 305.808C476.015 305.553 476.015 305.266 476.015 304.97" stroke="#FF0000" stroke-width="4" stroke-linecap="round"/>
<path d="M348.76 315.629C349.337 315.412 350.496 315.124 353.173 315.012C354.988 315.194 357.022 315.481 357.893 315.774C358.112 315.775 358.327 315.703 358.767 315.629" stroke="#FF0000" stroke-width="4" stroke-linecap="round"/>
<path d="M423.503 295.905C423.359 296.775 422.778 298.518 422.413 300.268C421.957 302.451 419.291 303.184 417.03 304.13C415.061 304.788 412.448 305.081 410.401 305.588C409.962 305.806 409.53 306.094 408.21 307.265" stroke="#FF0000" stroke-width="4" stroke-linecap="round"/>
<path d="M194.327 244.733C193.939 246.287 193.055 249.136 192.981 249.968C192.918 250.673 192.615 251.339 192.419 252.073C192.195 252.911 191.977 254.27 191.831 255.548C191.711 256.597 191.293 258.041 191.121 259.679C190.704 263.652 190.852 264.946 190.778 266.194C190.714 267.267 190.362 268.618 189.972 270.206C189.62 271.64 189.287 272.827 189.041 273.783C188.613 275.447 187.622 277.87 186.988 279.019C186.089 280.648 185.372 281.003 185.003 281.64C184.465 282.569 183.806 283.303 183.29 283.941C182.732 284.631 182.238 285.603 181.894 286.997C181.782 287.451 181.844 288.044 181.941 288.367C182.28 289.498 184.191 289.718 184.779 289.964C185.367 290.208 185.953 290.599 186.249 291.259C186.298 291.432 186.347 291.577 186.544 292.02" stroke="#FF0000" stroke-width="4" stroke-linecap="round"/>
<path d="M180.963 290.111C180.963 290.791 180.769 292.164 180.401 292.753C180.058 293.301 179.741 293.927 179.471 294.515C179.126 295.267 178.42 296.176 177.662 297.352C177.106 298.214 176.12 298.823 174.728 299.995C173.689 300.869 173.036 301.076 172.18 301.369C171.454 301.618 170.639 301.76 168.489 302.372C166.749 302.866 164.371 303.278 163.491 303.377C161.832 303.562 159.819 304.306 158.841 304.381C157.992 304.445 157.225 304.65 156.563 304.894C155.845 305.158 154.829 305.091 153.116 305.456C151.478 305.806 149.983 305.825 149.074 305.947C148.22 306.061 147.63 306.312 146.579 306.534C145.401 306.783 144.499 306.706 143.641 306.828C142.159 307.038 141.462 307.097 140.582 307.365C139.579 307.671 138.531 308.609 137.205 309.249C136.053 309.806 135.441 310.521 134.853 311.231C134.332 311.86 133.632 312.624 133.357 313.336C133.042 314.155 134.26 314.536 134.946 315.074C135.111 315.204 135.191 315.367 135.314 315.418C135.895 315.658 136.513 314.786 137.197 314.466C138.12 314.034 139.3 313.658 140.28 313.17C141.709 312.457 142.484 312.386 143.316 312.14C144.015 311.934 145.462 311.408 147.132 310.722C148.238 310.268 148.946 310.134 149.704 309.938C150.594 309.708 151.295 309.693 152.03 309.716C152.875 309.742 153.206 310.279 153.426 310.449C153.539 310.537 153.501 310.765 153.429 310.889C153.047 311.54 150.629 311.552 149.148 311.698C148.297 311.782 147.239 311.993 146.577 312.237C145.904 312.484 145.28 312.627 144.668 313.019C144.003 313.445 142.79 314.043 140.854 315.293C139.701 316.037 139.162 316.786 138.573 317.302C138.095 317.721 137.791 318.355 137.495 318.893C137.166 319.49 137.053 320.311 136.932 320.997C136.759 321.968 137.444 322.954 137.81 323.544C138.135 324.066 138.814 323.936 139.156 323.889C140.359 323.72 143.195 321.744 145.566 321.074C146.754 320.739 147.621 320.316 149.308 319.195C151.809 317.531 152.711 316.842 153.645 316.278C154.575 315.716 155.845 315.03 156.875 314.759C157.375 314.628 157.807 314.441 158.173 314.392C158.344 314.369 158.491 314.439 158.566 314.731C158.641 315.022 158.641 315.555 158.544 315.927C158.093 317.658 155.854 318.795 154.998 319.844C153.488 321.695 153.163 322.951 152.475 323.861C151.896 324.626 151.592 325.549 151.665 326.039C151.883 326.141 152.227 325.994 152.593 325.823C152.765 325.749 152.911 325.7 153.208 325.65" stroke="#FF0000" stroke-width="4" stroke-linecap="round"/>
<path d="M185.663 299.804C185.516 300.34 185.322 301.413 185.052 302.151C184.817 302.791 183.759 303.663 182.924 304.476C181.868 305.505 181.357 305.969 180.307 307.044C179.494 307.877 178.86 308.612 178.249 309.321C177.267 310.462 176.757 311.109 175.778 311.941C175.195 312.436 174.554 312.871 173.771 313.677C172.287 315.204 172.155 316.005 171.055 316.616C170.293 317.04 169.368 317.617 168.63 318.403C168.083 318.984 167.649 319.626 167.161 320.336C166.499 321.299 164.765 321.635 164.029 321.953C163.224 322.3 162.609 322.71 161.997 323.176C161.16 323.814 159.969 324.569 159.231 325.086C158.616 325.516 158.057 325.844 157.469 326.114C156.782 326.43 156.001 326.628 155.291 326.873C154.512 327.141 153.945 327.85 153.284 328.316C152.289 329.018 151.351 329.419 150.543 329.712C149.626 330.045 148.514 330.3 147.314 330.52C146.09 330.744 145.33 331.131 144.668 331.523C143.951 331.948 143.224 332.062 142.224 332.574C139.537 333.949 138.575 334.068 137.815 334.216C137.148 334.347 136.761 334.657 136.614 334.755C136.195 335.032 137.735 335.584 138.3 336.149C138.911 336.762 139.841 336.468 142.525 336.493C143.673 336.504 144.44 335.933 145.153 335.637C145.988 335.29 147.084 334.952 147.844 334.708C148.992 334.339 150.118 333.924 150.88 333.704C151.628 333.488 152.177 333.093 152.765 332.701C153.367 332.299 154.377 331.968 155.553 331.55C156.557 331.194 157.17 330.987 157.758 330.791C158.362 330.59 159.029 330.253 160.081 330.179C161.098 330.107 161.869 329.715 162.628 329.397C163.636 328.973 164.122 328.297 164.612 328.098C164.714 328.056 164.759 328.291 164.663 328.463C164.054 329.55 162.075 329.759 159.337 330.567C158.222 330.896 157.469 331.375 156.589 331.889C155.374 332.6 154.145 333.965 153.235 334.607C152.11 335.4 149.401 336.659 148.217 337.372C147.475 337.82 146.167 338.324 145.28 338.744C144.653 339.04 144.009 339.695 143.419 340.09C143.303 340.167 143.271 340.333 143.319 340.432C143.367 340.531 143.512 340.58 143.684 340.58C144.621 340.584 145.762 340.042 146.45 339.896C147.089 339.76 147.965 339.651 149.896 339.065C151.032 338.721 151.736 337.939 152.69 337.523C153.433 337.199 155.005 336.28 156.021 335.54C156.534 335.166 157.17 334.952 157.782 334.78C158.47 334.587 159.079 334.512 159.667 334.047C160.286 333.559 160.988 332.996 161.722 332.335C163.178 331.023 164.903 330.89 165.541 330.644C165.686 330.588 165.834 330.546 165.812 330.74C165.66 332.077 164.762 332.55 163.373 333.795C161.136 335.8 159.047 337.09 157.885 338.424C157.167 339.248 156.004 339.649 155.266 340.016C154.682 340.307 154.238 340.97 153.139 342.044C152.173 342.987 151.742 344.101 151.324 344.739C150.963 345.291 151.249 346.351 151.737 347.113C151.99 347.508 152.422 347.727 152.886 347.776C153.726 347.865 154.767 346.56 157.333 344.432C159.559 342.587 159.91 341.076 160.985 340.29C163.321 338.583 164.269 337.695 164.929 336.766C165.362 336.156 166.222 335.446 167.082 335.026C168.019 334.568 168.624 334.121 169.432 333.217C169.955 332.632 170.143 331.968 171.047 331.063C171.69 330.419 172.736 330.156 173.422 329.496C173.947 328.99 174.205 328.297 174.525 327.708C174.889 327.041 175.527 326.484 176.968 325.727C177.776 325.302 178.464 325.113 179.125 325.136C179.771 325.158 179.641 326.479 179.52 327.385C179.418 328.142 179.057 328.828 178.493 329.466C177.954 330.076 176.954 330.834 175.438 332.813C174.123 334.529 174.014 335.534 172.891 337.611C172.108 339.059 171.127 340.333 170.636 340.945C170.04 341.69 169.511 342.048 168.972 343.048C168.74 343.478 168.774 344.004 168.823 344.59C168.872 345.192 169.213 345.573 169.531 345.792C170.352 346.361 172.528 346.504 173.984 346.041C175.299 345.623 176.014 344.694 176.92 344.035C178.608 342.807 179.636 342.104 180.617 340.806C181.402 339.769 182.085 338.726 183.137 337.941C185.258 336.355 186.197 334.221 187.249 333.631C188.245 333.073 189.525 333.14 190.189 332.823C191.033 332.421 191.778 331.428 192.562 331.28C193.338 331.134 194.127 331.475 195.35 331.476C196.67 331.478 198.086 330.065 199.146 328.836C199.704 328.189 200.492 327.806 201.566 327.074C203.632 325.666 204.017 324.528 204.337 323.89C204.685 323.195 205.482 321.744 208.512 318.1C209.533 316.872 209.647 315.961 209.893 315.373C210.186 314.736 210.675 314.052 211.067 313.049C211.165 312.778 211.262 312.536 211.362 312.14" stroke="#FF0000" stroke-width="4" stroke-linecap="round"/>
<path d="M184.874 41.0339C185.543 40.7803 187.907 41.2824 189.306 41.877C190.98 42.5879 191.969 42.8089 194.037 43.6508C195.37 44.1934 197.791 45.1672 199.618 46.7761C200.967 47.9645 202.781 48.4687 205.274 48.8922C210.121 49.7156 210.987 51.0044 213.938 52.2292C215.456 52.8588 218.072 53.5351 219.989 54.2603C221.716 54.9137 223.072 55.4014 224.805 55.9086C225.916 56.2336 227.129 56.4157 228.863 57.9321C230.149 59.058 231.273 59.4586 232.288 59.5866C233.399 59.7267 234.904 59.9657 236.765 60.4729C238.245 60.876 240.143 61.1474 241.417 61.4035C242.679 61.6571 247.299 62.0805 250.291 61.6596C251.632 61.471 252.994 61.9943 255.99 62.1224C259.405 62.2684 264.491 62.1668 265.801 61.9969C267.671 61.7542 269.476 61.3198 270.703 61.0675C272.583 60.6811 274.127 60.6453 280.103 58.6649C286.483 56.5509 287.987 57.856 289.341 57.4756C290.708 57.0917 291.791 56.5019 293.649 55.7868C295.389 55.1176 297.78 54.3972 300.074 53.672C302.028 53.0542 303.704 52.3636 305.106 51.2656C306.742 49.9848 309.622 49.2345 311.022 48.8123C312.869 48.255 313.938 47.1247 315.79 46.0699C321.662 42.7263 323.32 40.6992 324.336 40.2326C326.17 39.39 329.735 38.0823 331.224 37.4015C334.37 35.9623 339.209 33.4318 340.983 32.6685C343.229 31.702 344.534 31.7379 345.636 31.3157C346.885 30.8371 348.084 30.2164 350.322 29.457C351.939 28.908 353.323 28.5276 354.511 27.8506C355.633 27.2114 356.792 26.6664 357.807 26.4965C358.893 26.315 360.337 25.7383 362.284 24.8927C363.02 24.5731 364.143 24.1332 366.623 23.4993C373.812 21.6615 375.886 23.0302 377.669 22.7779C379.611 22.503 381.302 22.3557 382.404 22.059C383.392 21.7929 384.431 21.7623 386.454 21.5518C390.5 21.1307 392.034 20.9204 398.147 20.7062C402.762 20.5444 407.334 20.6618 408.942 20.9585C411.028 21.3434 412.74 21.2551 414.353 21.4656C415.876 21.6644 419.572 22.0159 423.341 22.2263C428.15 22.4949 432.603 22.5205 435.049 22.9008C438.827 23.4884 441.891 24.1205 443.811 24.5934C445.315 24.964 446.811 25.7333 447.826 26.3241C448.881 26.9379 450.188 27.6756 451.585 28.6468C453.713 30.1258 456.101 30.967 457.713 32.1969C459.745 33.7476 461.011 33.8476 462.026 34.228C463.108 34.6331 464.054 35.2828 465.069 35.4971C466.252 36.0436 467.353 36.8068 467.9 36.9755C468.197 37.0604 468.532 37.1441 469.13 37.2303" stroke="#FF0000" stroke-width="4" stroke-linecap="round"/>
<path d="M469.267 37.9946C469.727 38.2243 470.463 38.5924 472.006 38.9162C472.895 39.1028 473.463 39.3756 474.567 39.815C476.069 40.4126 477.982 41.2216 478.422 41.6831C478.821 42.1025 479.87 42.2816 481.232 42.6981C482.241 43.0064 482.917 43.6211 483.77 44.2874C485.064 45.2982 485.776 45.9708 486.332 46.6869C486.903 47.4215 487.531 48.1848 488.245 48.8089C489.187 49.631 490.342 50.3989 491.036 51.023C491.762 51.6752 492.557 51.9681 493.548 52.6136C494.493 53.229 495.784 54.0867 497.254 55.3515C499.006 56.8576 500.445 57.6887 501.249 58.2166C502.426 58.9891 503.169 59.8557 504.039 61.207C504.744 62.3025 506.096 64.1565 506.892 65.3265C508.309 67.4086 508.658 67.8817 509.44 68.7805C510.054 69.4856 510.687 70.2341 511.4 70.9482C512.924 72.4755 513.637 73.2314 514.146 74.016C515.163 75.5824 517.141 77.6097 517.721 78.514C518.114 79.1248 518.619 79.8266 518.99 80.4977C519.428 81.2887 520.188 82.0406 521.891 83.8824C522.321 84.3473 522.402 84.8497 522.975 86.1581C523.548 87.4665 524.552 89.6127 525.23 90.9924C526.611 93.8051 527.431 94.4504 527.708 95.0503C528.21 96.1348 528.723 97.4007 529.482 98.9678C530.411 100.886 532.504 103.949 532.989 104.714C533.783 105.964 534.671 108.333 535.341 109.555C536.047 110.843 536.517 111.333 537.07 112.207C538.092 113.822 538.454 114.651 538.756 115.507C539.076 116.416 539.652 117.327 540.184 118.48C540.848 119.917 541.222 120.74 541.753 122.032C542.383 123.564 543.53 125.447 543.967 126.369C544.353 127.182 544.958 127.891 545.397 128.607C546.094 129.743 546.942 131.398 547.427 132.067C547.543 132.229 547.634 132.366 547.704 132.505C547.774 132.644 547.82 132.781 547.867 132.923" stroke="#FF0000" stroke-width="4" stroke-linecap="round"/>
<path d="M548.35 133.514C548.532 134.306 549.146 136.271 550.189 138.664C550.817 140.106 550.867 141.065 552.031 143.516C552.66 144.841 553.2 146.221 553.813 147.969C554.635 150.31 555.225 152.853 555.93 154.447C556.756 156.312 557.497 158.438 558.695 161.665C559.145 162.876 559.406 163.73 559.589 164.773C559.734 165.598 560.08 166.431 560.662 167.965C561.267 169.558 561.617 170.547 562.136 172.356C562.55 173.796 563.581 175.397 563.98 176.627C564.397 177.912 564.871 179.267 565.759 181.842C566.638 184.389 567.266 186.516 568.43 189.794C568.982 191.35 569.415 192.961 569.907 194.562C570.465 196.377 571.442 199.167 571.781 200.428C572.145 201.781 572.732 203.096 572.918 204.329C573.112 205.618 573.837 206.781 574.574 209.299C574.7 209.797 574.7 209.98 574.973 211.138C575.247 212.296 575.794 214.424 576.358 216.617" stroke="#FF0000" stroke-width="4" stroke-linecap="round"/>
<path d="M556.803 280.276C557.197 280.233 557.722 280.058 558.468 279.903C559.546 279.68 560.788 279.749 561.782 279.859C562.853 279.976 563.385 279.662 567.801 279.705C571.331 279.738 572.34 280.626 572.868 280.824C573.429 281.034 574.007 281.198 574.907 281.329C575.546 281.461 576.159 281.635 576.687 281.856C576.819 281.9 576.949 281.943 577.347 281.988" stroke="#FF0000" stroke-width="4" stroke-linecap="round"/>
<path d="M576.952 217.327C576.952 217.893 577.126 219.123 577.565 219.695C578.019 220.287 578.356 221.143 578.991 222.283C579.532 223.255 580.152 224.517 580.681 225.554C581.475 227.107 581.603 228.078 581.977 228.847C582.489 229.9 582.702 230.712 583.227 231.634C583.686 232.44 584.237 233.214 584.698 233.655C585.476 234.399 585.509 235.366 586.015 236.331C586.361 236.991 587.566 238.429 588.473 239.908C588.903 240.609 589.023 241.292 589.199 241.82C589.379 242.362 589.594 242.96 589.966 243.816C590.377 244.764 590.996 245.462 591.59 245.903C592.184 246.298 592.49 246.737 592.775 247.174C592.929 247.437 593.103 247.785 593.414 248.406" stroke="#FF0000" stroke-width="4" stroke-linecap="round"/>
<path d="M593.545 249.065C593.283 249.152 592.758 249.589 592.209 249.854C591.501 250.197 590.782 250.687 590.19 251.039C589.275 251.582 588.238 251.786 587.49 252.071C586.615 252.404 585.559 252.839 584.595 253.604C582.895 254.951 582.923 255.952 582.856 256.722C582.782 257.583 582.573 258.281 581.871 259.136C581.385 259.73 580.95 260.43 580.312 261.594C579.956 262.243 579.675 262.89 579.455 263.461C579.147 264.256 579.104 265.345 578.928 266.182C578.748 267.038 578.053 268.937 577.633 270.133C577.355 270.926 576.997 271.8 576.733 272.613C576.521 273.267 576.644 273.821 576.798 275.132C577.137 278.017 577.039 278.562 577.236 279.111C577.522 279.748 577.61 280.317 577.676 280.821C577.741 281.022 577.871 281.108 578.137 281.33" stroke="#FF0000" stroke-width="4" stroke-linecap="round"/>
<path d="M578.045 282.815C578.716 283.001 579.389 283.299 579.838 283.487C580.394 283.719 581.255 284.531 581.894 284.851C583.048 285.431 584.548 286.401 585.128 286.776C585.497 287.015 586.227 287.337 587.217 287.617C587.957 287.826 589.251 288.492 591.413 289.536C593.818 290.698 595.391 291.188 595.727 291.338C596.444 291.656 597.335 292.048 598.007 292.328C599.047 292.763 600.511 293.095 601.036 293.282C601.643 293.497 602.158 293.954 602.979 294.421C604.071 295.042 605.587 295.931 607.277 296.702C607.989 297.026 608.699 297.319 609.447 297.451C610.09 297.564 610.904 297.769 611.984 298.288C613.805 299.162 614.569 300.833 615.129 301.132C616.049 301.623 617.221 302.178 618.305 302.46C619.857 302.864 621.409 303.189 622.786 303.468C624.857 303.887 626.346 304.497 626.961 304.759C627.586 305.024 628.253 305.133 628.775 305.32C629.144 305.452 630.894 306.026 633.379 306.904C634.431 307.276 634.759 307.415 635.243 307.489C635.945 307.597 636.961 307.75 639.709 308.27C641.858 308.677 645.566 309.235 647.935 309.67C650.304 310.104 651.23 310.363 651.965 310.534C653.21 310.822 653.901 310.891 654.81 311.059C655.57 311.198 656.941 311.411 659.978 312.506C663.015 313.601 667.679 315.563 670.192 316.611C672.922 317.748 673.675 317.882 674.867 318.106C677.336 318.568 677.901 318.854 679.72 319.448C681.162 319.919 683.686 320.635 685.094 321.072C686.736 321.581 688.026 322.178 689.708 322.888C690.688 323.302 691.692 323.825 694.195 324.349C696.395 324.81 697.637 325.283 699.601 325.808C700.368 326.012 701.488 326.516 702.298 326.799C702.813 326.979 703.77 327.154 704.448 327.323C704.971 327.379 705.717 327.454 706.615 327.566C706.804 327.603 706.915 327.64 707.029 327.678" stroke="#FF0000" stroke-width="4" stroke-linecap="round"/>
<path d="M594.309 249.727C594.532 249.951 595.127 250.694 595.727 251.389C596.101 251.821 596.55 252.267 596.98 252.828C597.664 253.721 598.602 254.061 599.242 254.325C599.692 254.511 600.435 254.959 601.13 255.409C601.594 255.71 602.306 256.08 604.074 257.44C606.33 259.174 608.103 260.045 608.401 260.269C608.575 260.4 608.847 260.493 610.313 261.253C611.779 262.013 614.444 263.42 615.909 264.218C618.065 265.394 619.462 266.098 620.309 266.625C620.765 266.908 621.817 267.334 622.943 267.765C624.491 268.357 626.308 268.981 626.926 269.205C627.398 269.377 628.398 269.391 630.222 269.893C631.389 270.214 633.008 270.802 634.051 271.199C636.109 271.983 636.887 272.381 637.675 272.701C638.625 273.085 639.955 273.952 640.795 274.364C641.13 274.528 642.895 275.218 645.492 276.339C647.328 277.132 647.955 277.281 649.763 277.97C651.846 278.764 652.666 278.926 654.169 279.5C655.435 279.984 657.634 281.074 659.851 281.922C662.069 282.771 664.215 283.4 665.469 283.743C667.009 284.163 667.51 284.272 669.104 284.902C670.501 285.455 673.141 286.348 674.587 286.88C676.233 287.485 676.669 287.711 677.413 287.879C678.589 288.144 679.659 288.346 680.682 288.626C681.359 288.811 682.408 288.869 683.571 288.908C685.991 288.988 687.622 288.982 688.423 289.317C690.664 290.254 691.661 291.262 692.222 291.841C692.735 292.371 694.972 293.461 696.409 294.253C697.172 294.674 697.866 294.852 698.391 295.021C698.822 295.16 699.584 295.448 700.52 295.842C701.317 296.178 701.755 296.348 702.316 296.721C703.301 297.376 704.407 297.319 705.157 297.6C706.028 297.926 707.321 298.216 708.055 298.386C708.67 298.527 709.492 298.815 710.149 299.04C710.632 299.205 711.251 299.338 711.887 299.544C712.726 299.817 713.456 300.235 714.222 300.497C715.509 300.937 716.074 301.319 716.84 301.731C717.347 301.919 717.831 302.031 718.409 302.087C718.727 302.106 719.097 302.106 719.479 302.106" stroke="#FF0000" stroke-width="4" stroke-linecap="round"/>
<path d="M706.894 328.792C707.602 328.792 708.838 329.074 709.978 329.361C710.875 329.588 711.452 329.741 712.141 329.955C712.922 330.197 713.733 330.502 714.492 330.763C715.416 331.079 716.107 331.073 717.105 331.451C717.894 331.75 718.767 331.973 720.402 332.519C723.243 333.465 725.124 334.488 726.465 334.872C727.488 335.166 727.986 335.443 728.557 335.751C729.147 336.07 730.121 336.204 731.097 336.346C731.909 336.464 732.641 336.868 733.709 336.963C734.997 337.079 736.108 337.626 739.117 338.764C740.688 339.358 742.798 340.237 745.054 341.021C746.16 341.405 746.564 341.667 747.554 342.162C749.849 343.307 752.021 344.61 753.421 345.179C755.132 345.874 756.766 347.031 758.037 347.463C758.925 347.765 760.15 348.271 760.982 348.721C762.028 349.287 763.046 349.505 763.644 350.004C763.903 350.22 764.567 350.691 765.916 351.59C767.82 352.86 769.18 353.591 769.77 354.017C770.901 354.832 772.687 355.819 774.63 357.193C776.68 358.643 778.015 359.813 778.678 360.783C780.344 363.22 781.009 364.42 781.863 365.68C782.593 366.756 783.477 367.319 784.169 368.27C784.815 369.161 785.333 369.696 786.422 370.951C788.314 373.132 788.563 373.972 789.039 374.567C789.682 375.369 790.367 376.487 791.365 378.032C792.1 379.17 792.696 379.722 793.149 380.386C793.735 381.247 794.313 382.379 794.906 383.355C795.337 384.063 795.359 384.805 795.431 385.731C795.501 386.088 795.55 386.515 795.573 387.014C795.597 387.229 795.644 387.371 795.692 387.801" stroke="#FF0000" stroke-width="4" stroke-linecap="round"/>
<path d="M719.579 302.423C720.004 302.517 721.047 302.802 721.857 303.111C722.715 303.438 723.71 303.372 724.991 303.894C725.667 304.17 726.746 304.416 727.583 304.821C728.233 305.136 728.841 305.414 730.287 306.15C731.172 306.601 731.834 306.414 732.405 306.556C733.005 306.705 733.545 307.078 734.163 307.245C736.178 307.789 739.055 309.926 739.698 310.309C740.418 310.737 740.957 311.069 741.551 311.401C742.203 311.766 742.904 311.97 744.043 312.376C744.92 312.688 745.518 312.78 746.277 312.994C747.399 313.309 748.226 313.683 749.152 313.944C749.82 314.131 750.552 314.772 752.426 315.747C753.516 316.313 754.637 316.816 755.471 317.127C756.934 317.672 758.579 318.148 759.581 318.528C760.26 318.786 760.769 319.194 761.127 319.644C761.598 320.238 762.337 320.428 763.002 320.832C764.137 321.522 765.421 321.996 766.493 322.305C767.692 322.651 768.323 323.421 769.953 324.107C771.072 324.577 773.084 325.542 774.572 326.333C777.014 327.629 778.158 328.647 778.797 329.121C779.123 329.363 779.578 329.408 780.807 329.95C782.036 330.492 784.059 331.48 785.312 332.201C787.905 333.691 788.278 335.061 789.322 336.081C789.94 336.685 790.558 337.105 791.081 337.698C791.96 338.694 792.885 339.382 793.458 340.074C794.091 340.837 795.023 341.52 796.518 343.418C797.559 344.738 799.059 346.458 799.681 347.46C800.926 349.467 802.486 351.307 803.456 353.016C804.346 354.582 804.718 355.3 805.382 356.06C806.723 357.594 808.184 359.907 808.922 360.812C809.49 361.509 810.037 362.567 810.396 363.283C810.687 363.863 811.083 364.517 811.536 365.254C811.927 365.892 812.554 367.077 813.104 368.081C813.661 369.098 813.982 369.79 814.103 370.433C814.236 371.143 814.695 371.974 815.407 373.92C815.781 374.944 815.79 376.387 816.168 378.387C816.384 379.527 816.454 380.48 816.668 381.36C817.102 383.147 816.836 386.039 816.646 386.659C816.598 386.802 816.551 386.943 816.527 387.086C816.502 387.229 816.502 387.371 816.502 387.516" stroke="#FF0000" stroke-width="4" stroke-linecap="round"/>
<path d="M795.693 387.944C795.693 388.699 795.598 389.936 795.526 394.695C795.499 396.496 795.313 397.442 795.218 398.344C795.098 399.477 794.98 400.625 794.839 402.301C794.558 405.639 794.125 407.897 794.031 408.534C793.83 409.891 793.507 411.172 793.436 412.637C793.306 415.321 793.365 417.256 793.294 417.847C793.114 419.341 792.984 420.575 793.103 422.591C793.283 425.67 793.174 427.993 793.245 428.867C793.464 431.548 793.412 433.258 793.53 435.02C793.712 437.728 793.697 438.398 793.934 439.702C794.023 440.196 794.029 440.537 794.1 441.598C794.276 444.205 794.219 446.425 794.385 447.232C794.591 448.234 794.883 449.37 795.145 450.086C795.395 450.769 796.26 451.32 796.854 451.774C797.511 452.275 799.339 452.226 800.37 451.896C802.071 451.351 801.394 447.526 801.489 446.908C801.763 445.122 802.343 442.349 802.51 441.185C802.703 439.839 803.147 438.318 803.508 436.695C803.756 435.576 803.957 434.794 804.267 434.127C804.568 433.48 805.003 432.468 805.242 431.467C805.413 430.749 805.621 429.994 805.812 429.4C806.061 428.619 806.334 427.574 806.406 426.337C806.465 425.325 806.668 424.484 806.809 423.675C806.992 422.635 807.141 421.587 807.285 420.327C807.502 418.43 808.045 416.168 808.164 415.268C808.497 412.746 808.709 411.231 809.089 409.284C809.257 408.424 810.222 406.536 811.67 403.949C813.126 401.347 813.412 400.347 813.628 399.658C813.834 398.996 813.982 397.927 814.316 397.21C814.58 396.644 814.601 395.74 815.241 393.393C815.52 392.368 815.884 391.795 815.956 390.632C816.026 390.227 816.075 389.752 816.098 389.183C816.122 388.943 816.169 388.802 816.217 388.514" stroke="#FF0000" stroke-width="4" stroke-linecap="round"/>
</svg>
