<svg width="430" height="283" viewBox="0 0 430 283" fill="none" xmlns="http://www.w3.org/2000/svg">
<path d="M142.175 7.84963C141.341 6.73036 137.428 5.61109 132.518 5.18611C125.077 4.54216 116.137 5.59426 98.3465 7.69815C81.1365 9.73339 70.6762 16.5345 62.9633 19.8965C51.8353 24.7472 47.0958 26.347 31.5734 36.2815C23.992 41.1337 23.2462 45.7027 18.0664 55.4984C14.6223 62.0117 11.7506 69.8048 10.1937 75.296C8.69603 80.5782 9.20906 95.2534 11.2961 107.662C15.4151 132.152 22.9264 139.082 26.0317 144.169C28.3433 147.956 33.025 152.294 39.6144 158.879C48.861 168.12 55.1916 169.411 60.2451 171.805C62.131 172.699 63.9017 173.35 70.8571 176.413C88.0972 184.006 100.93 188.498 103.442 189.756C112.469 194.277 131.117 194.927 141.451 197.755C147.038 199.283 154.461 199.993 167.089 200.982C181.304 202.095 187.316 204.487 204.799 204.912C216.77 205.203 225.758 205.893 237.439 206.591C247.998 207.222 268.004 207.567 278.999 207.992C289.994 208.417 291.382 208.695 301.817 208.699C312.253 208.703 331.693 208.426 342.263 208.144C355.988 207.778 359.834 205.615 364.463 204.639C373.359 202.762 378.904 200.852 386.196 197.077C393.885 193.097 401.878 187.976 406.414 183.469C410.782 179.13 415.091 171.431 417.359 166.777C419.361 162.668 419.887 158.505 421.983 143.567C424.325 126.869 422.134 115.299 421.714 113.2C420.409 106.689 419.046 89.2952 417.649 81.2205C417.033 77.6605 412.903 73.2384 408.682 68.3195C402.412 61.0119 392.419 56.3905 388.624 54.7032C383.804 52.5605 379.51 50.4996 375.024 48.8123C368.093 46.205 362.123 43.481 356.371 40.9606C352.329 39.1896 345.595 37.5902 339.957 36.4667C329.228 34.329 308.853 33.6685 303.766 32.9574C299.944 32.4232 284.532 29.4607 275.014 27.3526C270.127 26.2704 264.503 25.8084 260.846 24.8238C257.3 23.8689 252.166 23.8392 239.563 22.4422C233.086 21.7242 229.158 20.7591 223.688 20.1952C217.517 19.5591 213.724 18.2344 209.381 16.8332C200.439 13.9478 194.654 13.4712 188.902 12.7601C184.524 12.2188 180.061 10.9465 171.663 10.2354C166.009 9.75676 161.547 8.97731 158.177 8.55233C154.806 7.57192 151.449 7.00807 146.551 6.30958C144.178 6.16652 140.29 6.16652 136.284 6.16652" stroke="#5A72D9" stroke-width="10" stroke-linecap="round"/>
<path d="M77.375 185.418C75.4225 186.806 70.9455 192.958 68.1263 197.326C65.5275 201.352 62.7992 204.756 54.4047 220.7C51.3928 226.42 48.4928 229.162 44.71 233.092C43.1143 234.749 40.9188 235.069 38.5414 234.93C32.5206 234.579 23.8521 230.861 18.2011 229.885C13.4253 228.059 10.9006 226.94 9.08283 226.098C8.09822 225.812 6.98736 225.812 5.0013 224.971" stroke="#5A72D9" stroke-width="10" stroke-linecap="round"/>
<path d="M120.294 199.724C119.739 205.287 118.056 216.538 117.492 236.529C117.213 246.419 114.689 251.311 113.705 255.532C113.448 256.635 113.562 258.044 113.145 259.037C102.428 261.157 84.1158 260.88 82.298 260.32C81.3134 260.038 80.2026 259.76 77.375 259.474" stroke="#5A72D9" stroke-width="10" stroke-linecap="round"/>
<path d="M332.366 214.03C333.207 215.983 333.763 220.46 337.819 232.637C339.881 238.827 341.892 242.626 342.603 247.394C343.355 252.432 344.417 258.616 344.434 263.244C344.458 269.843 329.875 271.239 325.646 273.074C323.967 274.05 322.276 274.9 320.597 275.598C319.751 276.019 318.918 276.575 317.218 277.989" stroke="#5A72D9" stroke-width="10" stroke-linecap="round"/>
<path d="M390.433 198.041C390.988 200.271 392.672 205.312 397.704 217.068C401.765 226.556 407.803 235.036 410.062 239.264C412.231 243.324 416.218 248.5 418.478 252.729C420.57 256.644 423.792 263.632 424.247 268.302C425.107 277.143 408.695 271.525 400.145 273.772C398.024 274.336 396.358 274.892 395.083 275.317C393.808 275.742 392.975 276.019 392.116 276.305" stroke="#5A72D9" stroke-width="10" stroke-linecap="round"/>
<path d="M64.7516 49.0858C65.5848 50.2051 69.498 52.4352 73.2934 54.4086C77.5471 56.6203 80.7243 59.1676 84.0948 61.7007C85.7737 62.8199 87.4652 63.6699 89.1441 64.3684C89.9898 64.7892 90.823 65.3446 93.3645 67.6" stroke="#5A72D9" stroke-width="10" stroke-linecap="round"/>
<path d="M121.977 74.3324C125.335 75.4517 128.693 76.5709 135.552 80.9049C142.944 85.5763 147.207 87.7804 150.578 89.615C152.256 90.5912 153.948 91.7189 155.627 92.8382C156.473 93.402 157.306 93.9574 158.164 95.3713" stroke="#5A72D9" stroke-width="10" stroke-linecap="round"/>
<path d="M87.4736 113.044C85.7989 112.766 82.4411 111.647 69.153 111.5C62.9484 111.431 59.7191 114.996 56.7653 118.91C53.0703 123.805 56.6138 129.867 58.2843 132.379C64.0046 140.981 70.0534 141.926 74.2738 144.173C78.9327 146.653 82.4074 148.103 90.9282 150.485C101.793 153.521 110.187 150.358 111.866 149.1C115.6 146.302 116.928 142.515 117.626 139.145C118.372 135.55 114.42 131.575 111.887 128.204C109.453 124.966 106.291 122.587 102.634 120.067C99.2638 118.379 95.906 116.141 92.5355 114.731C91.6898 114.449 90.8566 114.172 88.3151 112.202" stroke="#5A72D9" stroke-width="10" stroke-linecap="round"/>
</svg>
