<svg width="395" height="234" viewBox="0 0 395 234" fill="none" xmlns="http://www.w3.org/2000/svg">
<path d="M47.7021 172.305C48.3939 170.407 49.0857 167.634 51.247 165.034C53.314 162.546 53.5903 159.145 55.325 157.14C56.95 155.262 59.645 150.147 61.3095 146.825C62.6113 144.228 63.6502 140.763 64.3446 138.331C65.1773 135.415 66.4174 132.961 68.8466 130.269C70.7347 128.176 72.1392 125.501 73.7907 123.504C75.4399 121.509 78.8909 119.436 90.0535 111.564C93.9085 108.845 96.4099 106.432 103.416 102.188C108.735 98.9661 110.454 96.0292 112.714 93.1657C114.998 90.2727 116.53 88.0499 119.812 84.8509C124.042 80.7278 126.59 76.9497 127.453 75.3944C128.545 73.4276 132.114 67.9717 136.962 60.2656C141.924 52.3777 144.785 49.9118 150.496 41.0925C156.376 32.0129 157.966 29.095 161.256 26.1535C165.022 22.7858 166.808 20.7724 169.235 18.2627C170.046 17.4234 171.302 16.6216 175.955 14.7204C180.608 12.8192 188.676 9.90109 193.948 8.22617C201.353 5.87345 209.415 6.0259 219.113 6.54346C225.428 6.88047 231.11 9.13645 237.428 11.472C242.638 13.3981 246.731 15.3836 250.193 16.7672C253.072 17.9181 259.87 22.9779 268.624 29.4773C273.216 32.8864 275.345 36.0027 281.576 42.6738C285.741 47.1318 288.359 51.4411 290.952 56.4606C293.782 61.9392 294.258 66.3384 294.69 73.2644C295.193 81.3351 294.263 89.3971 293.483 94.1618C292.786 98.4188 291.834 101.553 290.19 104.326C289.143 106.091 288.37 108.659 285.956 112.713C281.865 119.585 277.795 124.955 276.065 128.412C272.511 135.515 270.174 139.171 267.051 141.863C260.223 147.747 256.994 152.872 255.337 155.132C254.112 156.804 250.762 159.281 247.628 161.288C243.332 164.041 242.247 166.407 237.004 169.073C232.308 171.46 223.35 175.686 217.207 178.326C208.135 182.224 202.387 183.739 198.231 185.299C193.878 186.933 189.217 188.763 185.641 190.852C184.569 191.478 180.036 193.268 173.024 196.04C168.085 197.993 160.457 197.793 151.536 197.965C140.985 198.168 133.019 199.177 125.755 199.44C121.731 199.585 116.561 199.531 101.596 199.268C96.5665 199.18 92.1237 198.313 88.8025 197.796C88.2798 197.622 87.7648 197.45 87.1562 197.362C86.5476 197.273 85.861 197.273 85.1536 197.273" stroke="#79819D" stroke-width="8" stroke-linecap="round"/>
<path d="M220.395 118.729C220.224 118.386 220.052 118.042 217.131 111.085C214.211 104.128 208.546 90.5675 205.285 83.0668C201.536 74.4465 199.256 72.4451 196.403 70.8847C195.024 70.1303 193.378 70.3541 192.325 70.6116C189.367 71.3345 187.469 76.5648 184.348 84.44C180.201 94.9038 176.707 103.28 175.927 106.31C175.593 107.608 175.661 108.482 176.176 109.267C179.259 113.97 190.351 114.214 199.126 114.482C202.344 114.58 205.123 113.704 207.805 112.583C210.754 111.35 213.956 105.075 218.283 96.9421C221.962 90.0289 223.339 83.561 223.859 77.8522C224.347 72.506 223.521 68.9757 222.055 67.332C220.222 65.2787 216.426 65.3241 213.051 65.9275C210.339 66.4122 205.009 73.4178 197.989 82.3438C195.428 85.6012 194.918 86.2918 194.824 86.903C194.731 87.5142 195.074 88.0291 195.766 88.3802C196.457 88.7313 197.487 88.903 198.548 89.0799" stroke="#79819D" stroke-width="12" stroke-linecap="round"/>
<path d="M236.52 78.6766C234.804 78.6766 231.86 79.0199 217.495 83.3164C205.113 87.02 182.704 94.8224 170.691 98.9707C158.678 103.119 157.82 103.634 157.464 104.242C156.166 106.459 159.188 108.492 159.877 109.533C160.662 110.717 162.824 109.543 170.044 108.765C176.554 108.064 188.936 107.816 196.075 107.379C204.778 106.846 207.552 105.73 209.716 104.607C212.992 102.906 213.285 100.357 213.545 98.8016C213.689 97.9404 213.633 96.903 211.917 97.4882C210.2 98.0734 206.767 100.305 200.278 105.66C193.789 111.015 184.348 119.426 180.171 123.33C175.994 127.234 177.368 126.375 178.762 125.161C180.156 123.946 181.529 122.401 183.695 119.202C185.862 116.003 188.78 111.197 194.574 104.172C200.369 97.1475 208.952 88.0499 213.545 83.0199C218.138 77.99 218.481 77.3034 218.744 76.6064C219.006 75.9094 219.178 75.2228 218.923 74.4399C217.519 70.126 209.68 67.9405 199.206 65.9379C190.147 64.2056 182.959 66.0159 179.76 67.1369C176.071 68.4295 171.36 73.7871 164.53 81.9926C160.718 86.5727 157.185 92.7729 154.296 97.8419C149.242 106.707 147.23 112.3 147.138 114.209C147.11 114.8 148.249 114.401 148.777 113.881C149.771 112.902 153.601 105.959 159.755 96.4271C162.01 92.9343 162.304 92.0447 162.223 91.0876C161.746 85.421 155.906 78.7078 153.477 74.3593C150.434 68.913 151.562 66.7181 151.045 66.0237C147.949 61.8705 137.534 72.7676 134.491 75.5452C132.43 77.4267 135.255 80.7469 135.437 85.1578C135.671 90.8263 136.296 96.3204 137.599 101.462C137.843 102.427 138.033 103.28 138.894 104.066C140.977 105.967 146.153 106.76 153.154 108.399C161.291 110.303 165.945 113.522 167.243 114.646C169.989 117.023 169.94 125.605 169.079 131.715C166.304 139.681 165.258 145.944 165.172 147.327C165.087 148.024 164.915 148.711 164.738 150.979" stroke="#79819D" stroke-width="18" stroke-linecap="round"/>
<path d="M183.464 166.063C185.352 163.832 187.24 161.601 195.251 153.842C203.261 146.084 217.337 132.867 224.931 125.543C232.525 118.219 233.212 117.189 233.566 116.23C234.206 114.492 233.576 111.639 233.657 104.487C233.716 99.2062 235.282 90.6403 235.644 84.5024C236.206 74.9468 233.93 69.3345 231.94 65.6986C230.415 62.9112 223.573 57.5685 213.703 50.4631C207.573 46.0501 202.21 46.2551 197.545 47.0249C191.192 48.073 186.949 52.6634 183.833 53.8728C181.145 54.916 178.798 58.0263 175.427 61.4853C171.797 65.2112 167.703 68.9444 162.527 75.0719C159.165 79.0521 153.919 84.4608 150.236 88.9212C146.553 93.3815 144.493 96.6429 141.544 100.125C138.595 103.608 134.818 107.213 132.015 110.958C126.756 117.983 124.524 124.43 122.017 128.495C116.69 137.133 109.965 142.126 108.563 144.209C108.256 144.666 108.217 145.247 109.502 145.855C110.787 146.464 113.533 147.15 121.299 147.847C129.065 148.545 141.768 149.231 152.689 147.697C163.609 146.162 172.364 142.386 177.646 140.269C184.382 137.569 188.811 135.738 193.745 132.794C197.347 130.645 200.442 129.314 204.582 126.211C217.735 116.355 221.259 114.053 221.779 112.843C221.956 112.149 221.956 111.291 221.698 110.763C221.441 110.235 220.926 110.063 219.875 109.886" stroke="#79819D" stroke-width="40" stroke-linecap="round"/>
<path d="M170.98 106.245C170.117 107.28 167.016 110.729 163.794 113.605C161.314 115.819 160.405 117.683 160.231 117.777C158.643 118.63 160.92 114.053 161.698 113.101C163.206 111.254 166.111 110.76 175.711 103.673C179.458 100.906 181.373 98.9733 182.767 96.7184C184.33 94.1901 183.807 91.3477 185.708 87.5349C187.756 83.4277 189.872 81.808 191.864 79.8106C192.932 78.74 194.897 78.505 197.831 79.0173C202.911 79.9045 209.259 86.4426 216.785 93.6208C223.785 100.296 228.869 106.053 232.765 109.085C236.916 112.317 241.524 114.037 249.321 115.863C255.409 117.288 264.567 112.851 268.07 111.278C269.982 110.419 269.634 107.296 271.191 103.832C272.522 100.872 272.411 96.903 272.929 93.7717C273.445 90.6496 273.795 87.1864 273.886 77.5869C273.93 72.9503 273.108 68.4607 272.414 65.7688C272.255 65.1534 272.068 64.6427 271.722 64.2916C270.141 62.6864 264.474 63.0718 261.407 61.4333C258.566 59.9153 259.241 55.8 257.938 53.7167C257.341 52.763 256.812 51.8051 256.203 51.5425C254.508 50.8107 259.397 54.3955 261.48 55.6985C261.976 56.0088 262.518 56.1329 262.955 55.9638C263.392 55.7948 263.735 55.2798 263.397 54.4996C261.664 50.4999 258.377 49.9014 255.948 48.4267C253.883 47.1733 251.615 46.6035 249.618 45.7375C246.838 44.5324 245.717 40.1952 243.81 39.1471C241.886 38.0891 239.308 37.4175 237.048 36.1145C235.063 34.97 232.889 34.1197 230.806 32.9077C228.642 31.6487 226.648 30.4786 224.564 29.7842C221.57 28.7859 217.285 28.9181 208.294 28.9129C204.592 28.9108 202.377 31.1652 200.548 32.8089C198.598 34.562 195.958 35.3265 192.759 35.9351C191.147 36.2417 188.374 36.0235 187.131 35.6802C185.888 35.3369 186.231 34.6503 186.751 33.7816C189.002 30.0226 191.256 28.0546 192.652 27.6983C195.982 26.8489 187.292 31.3317 184.686 32.9832C182.452 34.3992 181.217 37.0534 179.31 38.2732C177.117 39.6769 175.152 40.8714 173.5 42.6919C171.599 44.7879 169.253 46.9365 167.864 49.0197C166.475 51.1029 165.092 53.1784 164.221 55.2616C163.526 57.3449 162.834 58.9053 162.228 59.9431C161.966 60.4658 161.794 60.9808 161.617 62.0315" stroke="#79819D" stroke-width="40" stroke-linecap="round"/>
<path d="M209.992 130.693C209.477 132.935 207.402 136.747 206.182 139.093C204.503 142.322 201.846 144.727 201.841 147.327C201.838 148.804 202.71 150.277 202.366 151.92C201.675 155.231 196.322 156.513 193.355 158.256C191.227 159.505 190.403 161.892 190.052 163.803C189.981 164.187 190.736 164.326 191.258 164.329C193.405 164.339 195.76 162.776 197.935 161.301C199.989 159.908 201.482 156.888 203.742 155.231C204.65 154.566 205.825 154.448 206.692 154.446C207.081 154.445 207.214 155.13 206.959 155.91C205.766 159.565 204.447 160.857 203.841 161.38C201.474 163.421 207.037 153.07 209.719 151.676C211.638 150.678 213.628 151.842 214.494 152.62C214.909 152.993 215.017 153.569 215.277 153.577C217.294 153.638 218.824 151.156 221.425 150.893C224.391 150.594 227.147 150.115 229.316 148.732C232.163 146.916 233.389 144.571 235.472 142.836C237.262 141.345 239.631 140.409 242.06 138.071C243.989 136.215 245.009 133.824 246.915 131.741C248.824 129.655 250.559 128.789 250.996 128.183C251.156 127.961 250.232 127.749 249.62 127.746C247.124 127.735 242.107 129.652 229.118 131.465C222.573 132.379 215.578 132.94 207.539 134.924C203.213 135.992 198.642 138.11 192.478 141.743C186.314 145.377 178.762 150.698 174.527 153.868C167.474 159.15 162.345 166.188 158.938 169.614C157.136 171.426 153.659 169.705 145.014 170.997C133.896 172.659 130.251 174.209 126.779 174.214C123.482 174.219 121.232 171.796 118.108 169.627C115.333 167.699 113.253 165.554 110.738 163.125C108.737 161.193 106.491 159.998 103.289 159.39C97.736 158.334 95.5672 158.095 93.4839 156.706C91.4007 155.317 89.3252 153.933 87.242 152.545C85.1588 151.156 83.7699 149.944 83.4214 148.906C82.7035 146.768 85.32 144.404 86.7947 142.316C88.0502 140.537 90.5216 140.066 91.9104 137.983C93.2993 135.899 95.0262 133.824 97.1094 131.912C98.7732 130.386 101.268 130.349 103.351 129.569C105.651 128.708 107.51 126.542 109.593 124.976C111.642 123.437 114.272 122.724 116.355 121.335C119.122 119.49 122.075 116.482 124.158 114.661C126.081 112.981 128.66 111.114 130.748 109.717C132.508 108.54 133.352 106.256 134.046 104.172C134.22 103.65 134.392 103.135 134.309 103.127C132.495 102.957 132.322 106.755 129.812 109.267C127.801 111.281 127.115 114.38 126.855 116.804C126.501 120.098 130.21 124.94 132.998 128.599C135.068 131.317 137.164 133.632 139.232 136.219C147.117 146.088 153.981 149.065 155.279 150.191C155.848 150.684 156.405 150.802 156.928 150.118C160.555 145.372 156.249 138.339 154.777 134.095C153.276 129.766 149.326 122.25 145.95 113.244C142.539 104.144 139.614 98.8173 138.127 95.8498C137.865 95.3278 137.523 94.812 137.261 94.8901C135.149 95.5173 137.513 99.816 138.121 103.452C138.775 107.357 139.583 113.491 142.522 120.326C143.94 123.624 145.804 126.303 150.036 132.524C154.267 138.745 160.962 148.357 164.754 154.082C171.074 163.623 173.57 165.887 175.568 166.753C176.634 167.215 176.873 168.659 176.962 169.697C177.007 170.224 176.535 170.735 176.101 171.172C173.71 173.577 168.39 172.992 165.443 173.26C161.459 173.622 155.906 173.512 153.737 174.298C153.158 174.507 152.441 174.386 152.345 174.472C150.958 175.709 156.925 174.22 159.438 174.298C160.393 174.327 161.763 174.386 162.384 174.129C163.006 173.871 162.834 173.356 162.403 173.091C160.374 171.844 156.956 172.305 154.343 173.255C152.189 174.037 150.184 175.593 148.272 177.068C145.051 179.552 137.18 178.204 134.665 177.941C132.092 177.673 125.601 176.987 121.487 177.419C118.969 177.679 117.237 178.199 115.768 178.459C114.985 178.547 114.126 178.547 113.242 178.547" stroke="#79819D" stroke-width="40" stroke-linecap="round"/>
<path d="M82.5528 155.14C80.1341 155.14 77.0183 155.483 73.463 156.61C70.4299 157.57 66.6151 158.261 64.355 158.864C61.9823 159.498 60.7113 161.033 60.1027 160.779C58.7397 160.208 61.3927 157.231 62.6905 155.499C63.6119 154.269 64.8622 153.928 66.0715 153.754C69.0378 153.326 70.7556 155.65 72.662 157.216C74.5265 158.747 76.8207 159.125 79.7674 160.251C82.5086 161.298 85.6634 162.589 88.6101 165.359C90.8523 167.466 92.259 169.174 93.1251 171.686C94.6023 175.972 95.0367 180.763 95.5542 184.261C95.7143 185.343 96.077 186.688 95.9911 188.246C95.9228 189.485 95.0419 190.334 94.5191 190.683C94.0119 191.021 96.7584 189.991 98.8364 190.162C99.7265 190.236 100.228 190.677 100.236 191.026C100.243 191.374 99.7285 191.718 98.7766 191.895C97.8247 192.071 96.4515 192.071 95.7441 191.385C92.8555 188.581 95.5568 183.947 95.0393 181.156C94.6279 178.938 92.4463 177.341 91.3123 175.002C90.2077 172.725 88.6283 170.755 86.2902 169.19C84.1483 167.755 82.0431 166.76 79.9598 165.634C77.944 164.545 66.5319 163.983 60.1053 165.364C57.9771 165.821 55.5201 166.584 53.5227 166.498C51.9467 166.43 57.7412 165.2 60.1781 164.42C62.4347 163.697 68.7998 162.942 73.1821 163.46C75.3629 163.718 77.6841 164.846 79.9442 165.972C81.93 166.962 83.5827 168.831 85.5801 170.305C87.4576 171.691 88.6179 173.335 89.744 175.419C90.8337 177.434 92.0821 179.577 92.5217 186.841C92.6494 188.952 92.956 190.157 92.6985 191.369C92.577 191.942 91.9261 192.238 91.9183 192.157C91.7219 190.128 93.4762 185.351 92.4411 181.676C91.7622 179.266 89.6686 177.517 87.3305 175.002C85.3975 172.923 83.0834 171.796 81.0001 170.747C79.0385 169.761 76.8415 169.018 74.7582 167.197C72.907 165.58 69.7413 165.543 67.2237 165.457C66.9601 165.448 68.5033 164.68 69.6268 164.245C72.6676 163.07 76.6438 166.23 79.1614 167.533C82.248 169.13 84.2797 169.694 86.1861 171C89.3715 173.181 91.2187 176.976 91.9131 179.145C92.7094 181.633 92.956 184.425 92.3526 186.862C92.2123 187.429 91.7492 187.9 91.4866 188.423C91.2239 188.945 91.0522 189.46 90.9638 188.352C90.39 181.163 88.8051 179.421 87.5854 177.515C86.0636 175.136 83.77 173.876 81.6945 172.225C81.1612 171.8 80.8259 171.275 80.9923 171.01C81.1588 170.745 81.8454 170.745 82.4566 170.917C84.9357 171.613 86.3604 174.376 87.2317 176.545C88.4263 179.519 90.3448 182.698 91.3929 184.781C92.4333 186.849 91.5724 188.945 91.3955 189.554C91.1475 190.407 93.2993 188.436 93.9911 187.226C94.8352 185.751 95.5516 182.386 96.3319 175.484C96.5971 170.984 96.5971 164.461 96.3397 160.929C96.0822 157.398 95.5672 157.054 94.5165 156.18" stroke="#79819D" stroke-width="12" stroke-linecap="round"/>
<path d="M95.0366 192.071C96.7636 192.071 99.5308 191.728 101.791 191.205C102.3 191.088 102.829 191.374 102.836 191.549C102.913 193.248 97.4918 192.592 94.181 192.16C93.3177 192.047 92.1133 192.071 91.7518 191.986C92.9508 191.38 94.5113 190.859 95.3773 190.342C95.7285 189.996 95.9001 189.481 96.077 188.43" stroke="#79819D" stroke-width="12" stroke-linecap="round"/>
<path d="M47.0482 163.101C47.0812 162.902 47.1483 162.503 47.3475 162.102C47.554 161.686 47.7808 161.302 48.048 160.901C48.3559 160.439 48.7476 159.9 48.8992 159.4C49.0663 158.849 49.3821 158.499 49.7324 158.015C50.0287 157.606 50.2828 157.198 50.5335 156.797C50.7606 156.434 50.8172 155.997 50.9674 155.547C51.1978 154.855 51.4838 154.396 51.9336 153.879C52.3933 153.351 52.7168 152.763 53.1351 152.211C53.4404 151.808 53.6195 151.394 54.0188 150.81C54.3575 150.315 54.5202 149.826 54.886 149.109C55.2692 148.358 55.7532 148.057 56.2206 147.607C56.6113 147.231 56.8541 146.624 57.0723 146.172C57.3033 145.694 57.4886 145.091 57.7228 144.505C57.9062 144.046 58.023 143.421 58.1897 142.97C58.3871 142.435 58.6235 142.086 59.0228 140.689C59.2182 140.005 59.3901 139.484 59.5412 138.801C59.7909 137.674 59.8245 136.982 59.9746 136.482C60.1281 135.97 60.423 135.317 60.5921 134.78C60.745 134.294 61.1255 133.88 61.4253 133.313C61.6491 132.889 61.8261 132.478 62.4581 131.413C62.7728 130.883 62.8269 130.377 63.1101 129.976C63.2602 129.608 63.5935 129.276 63.9603 128.975C64.0609 128.908 64.16 128.841 64.3621 128.773" stroke="#53596E" stroke-width="2" stroke-linecap="round"/>
<path d="M64.8625 128.273C65.0287 127.975 65.3609 127.44 65.8283 127.074C66.2193 126.767 66.4959 126.374 66.8461 125.973C67.1874 125.582 67.5287 124.874 67.6813 124.288C67.7932 123.859 68.0971 123.339 68.6296 122.622C69.3134 121.7 69.9306 121.504 70.2494 121.069C70.5187 120.701 70.7333 120.269 71.0495 119.868C71.3824 119.446 71.9643 118.902 72.8825 118.217C73.4146 117.821 73.8338 117.366 74.3517 116.899C74.7341 116.554 75.367 116.199 75.8864 115.931C76.4089 115.66 76.8362 115.463 77.304 115.33C77.9723 115.141 78.4034 114.332 78.7562 113.863C79.0401 113.486 79.4723 113.063 80.0557 112.845C80.5822 112.648 80.9735 112.362 81.4073 112.012C81.9869 111.543 82.1084 111.061 82.4752 110.677C82.9741 110.154 84.4383 109.728 85.2434 109.276C85.8741 108.921 86.6781 108.525 87.0789 108.341C87.5007 108.147 87.779 107.725 88.2959 107.374C88.8343 107.009 89.4783 106.824 90.0643 106.557C90.5084 106.354 91.0456 105.725 91.599 105.422C92.5091 104.924 93.5836 104.022 93.8183 103.671C94.0746 103.289 94.4183 102.955 94.8681 102.388C95.2285 101.934 95.6853 101.786 96.1692 101.569C96.722 101.322 97.2866 100.785 98.0197 100.319C98.1883 100.218 98.2874 100.185 98.388 100.134C98.4886 100.084 98.5876 100.018 98.7898 99.9503" stroke="#53596E" stroke-width="2" stroke-linecap="round"/>
<path d="M83.0771 110.659C83.0111 110.692 82.945 110.725 82.878 110.792C82.8109 110.858 82.7449 110.957 82.6613 111.058C82.5777 111.158 82.4787 111.257 82.3766 111.359" stroke="#53596E" stroke-width="2" stroke-linecap="round"/>
<path d="M99.2902 99.4499C99.5554 99.4499 100.089 99.3838 100.49 99.1672C100.865 98.9642 101.124 98.5512 101.49 98.2334C101.982 97.8072 102.591 97.4823 103.041 97.2491C103.694 96.9112 104.126 96.6496 104.476 96.2323C104.878 95.7537 105.293 95.3146 105.694 94.9643C106.041 94.6608 106.492 94.0495 106.895 93.5466C107.197 93.1708 107.429 92.7465 107.729 92.3127C108.151 91.7029 108.496 91.3114 108.979 90.8125C109.948 89.812 110.231 89.1776 110.515 88.7593C110.833 88.2906 111.86 87.4462 112.499 86.9408C113.383 86.2415 114.931 84.642 115.718 83.8899C116.237 83.3942 116.868 82.6384 117.303 82.0064C118.293 80.5652 118.337 80.0363 118.605 79.5524C118.844 79.1182 119.336 78.6031 119.822 78.2504C120.232 77.9521 120.705 77.9006 121.156 77.5338C121.58 77.189 121.906 76.5995 122.224 76.2327C122.573 75.8302 122.907 75.3665 123.357 74.8326C124.092 73.9614 124.276 73.431 124.526 72.831C124.787 72.2026 124.977 71.7637 125.608 70.8479C126.584 69.4312 127.177 68.7292 127.578 68.0442C128.124 67.1116 128.345 66.7256 128.579 66.2092C129.041 65.1878 129.378 64.6579 129.714 64.2231C130.032 63.8103 130.381 63.423 130.764 63.0221C131.09 62.6802 131.282 62.222 131.764 61.2067C132.082 60.4866 132.25 60.1193 132.333 59.9196C132.383 59.8191 132.449 59.72 132.517 59.5178" stroke="#53596E" stroke-width="2" stroke-linecap="round"/>
<path d="M132.717 59.2177C132.717 59.1516 132.717 58.9194 132.767 58.5696C132.843 58.0293 133.318 57.8185 133.45 57.3186C133.702 56.3691 134.016 55.9831 134.301 55.6163C134.517 55.2815 134.818 55.1484 135.017 55.0483C135.118 55.0143 135.217 55.0143 135.319 55.0143" stroke="#53596E" stroke-width="2" stroke-linecap="round"/>
<path d="M156.736 25.0902C156.504 25.1892 155.972 25.4895 155.637 25.6561C155.55 25.6995 155.699 25.7567 155.834 25.7407C156.376 25.6759 156.734 25.2583 157.102 24.8084C157.405 24.4378 157.603 23.9252 157.77 23.4904C157.964 22.9831 158.636 22.8564 159.053 22.6722C159.541 22.4571 159.903 21.9236 160.139 21.4057C160.343 20.9569 160.804 20.5545 161.338 20.2042C161.82 19.8883 162.239 19.5877 162.656 19.1704C163.175 18.6519 163.804 17.8223 164.59 17.3349C164.987 17.089 165.507 16.8195 165.926 16.3847C166.28 16.0163 166.642 15.5185 167.126 15.1832C167.534 14.9007 167.943 14.7158 168.51 14.3996C169.004 14.1242 169.444 13.8151 169.994 13.5159C171.15 12.8864 171.546 12.5481 171.947 12.3639C172.526 12.0979 173.808 11.217 174.566 10.8627C175.059 10.6318 175.647 10.0821 176.233 9.67879C176.969 9.17259 178.151 8.77706 178.783 8.51185C180.334 7.86101 181.018 7.64415 181.67 7.3274C182.685 6.83467 183.288 6.64335 183.873 6.49223C184.505 6.32891 185.189 6.30908 185.658 6.10892C186.097 5.92145 186.724 5.80868 187.408 5.59201C187.892 5.43868 188.426 5.30828 189.126 5.15816C189.68 5.03952 190.061 4.90796 190.511 4.8409C191.196 4.739 191.562 4.40755 192.644 4.17437C193.298 3.94018 193.731 3.77405 194.031 3.60741C194.165 3.53986 194.264 3.50683 194.366 3.67296" stroke="#53596E" stroke-width="2" stroke-linecap="round"/>
<path d="M194.367 3.57298C194.566 3.50693 194.965 3.24072 195.781 3.15615C196.278 3.10465 196.666 2.90645 197.15 2.78935C197.559 2.69038 198.034 2.54015 198.468 2.30597C198.86 2.09485 199.831 2.07178 200.503 1.98871C201.069 1.91877 201.536 1.73951 202.137 1.68797C202.708 1.639 203.372 1.70548 203.856 1.65494C204.077 1.63185 205 1.57138 206.301 1.55486C206.877 1.54755 208.166 1.47129 210.033 1.48781C211.478 1.50058 212.679 1.63743 213.927 1.70448C214.216 1.71999 214.347 1.80356 215.339 1.83759C216.332 1.87162 218.182 1.87162 219.184 1.88813C220.555 1.91072 221.086 2.03775 221.736 2.25442C222.517 2.51487 223.688 2.43807 224.105 2.55517C224.574 2.68672 225.121 2.73831 225.673 2.87192C226.1 2.97513 226.556 3.20469 227.14 3.35581C227.87 3.54465 228.886 3.4729 229.759 3.63904C230.23 3.72846 230.76 3.93928 231.195 4.07288C231.599 4.19697 231.995 4.3396 232.412 4.55627C232.983 4.85268 233.96 4.87403 234.497 4.95709C234.902 5.01968 235.231 5.37243 235.681 5.74022C236.099 5.90786 236.498 6.17307 236.899 6.4578C237 6.50834 237.099 6.54137 237.301 6.77555" stroke="#53596E" stroke-width="2" stroke-linecap="round"/>
<path d="M233.898 4.974C233.898 5.00703 233.898 5.04005 233.931 5.10661C233.964 5.17316 234.03 5.27224 234.098 5.37432" stroke="#53596E" stroke-width="2" stroke-linecap="round"/>
<path d="M237.701 6.57532C237.933 6.57532 238.334 6.77348 238.701 7.04169C239.029 7.28157 239.567 7.24185 240.002 7.44201C240.371 7.61194 240.802 7.64217 241.203 7.75927C241.603 7.87628 242.003 8.14258 242.404 8.25967C242.791 8.37294 243.204 8.50887 243.605 8.7926C244.096 9.14021 244.505 9.5437 244.906 9.67731C245.306 9.81092 245.706 9.94402 246.107 10.0776C246.499 10.2083 246.907 10.3103 247.324 10.5445C247.75 10.7838 248.208 10.7447 248.692 10.8783C249.114 10.995 249.575 11.3431 250.026 11.6284C250.567 11.9699 250.91 12.3119 251.443 12.4961C252.147 12.7391 252.611 12.9464 253.012 13.0966C253.466 13.2667 253.978 13.5129 254.413 13.7636C254.784 13.9775 255.213 14.1794 255.614 14.4642C256.179 14.8651 257.115 15.2143 257.516 15.4815C257.955 15.7741 258.416 16.115 258.9 16.4653C259.309 16.7616 259.717 17.0818 260.101 17.3164C260.494 17.5564 260.884 17.9164 261.319 18.1836C261.723 18.4322 262.019 18.8171 262.337 19.1674C262.671 19.5362 263.186 19.9501 263.621 20.2853C264.002 20.5795 264.421 20.7527 264.655 21.069C264.96 21.4788 265.72 21.9837 266.306 22.4536C266.724 22.6212 267.057 22.6883 267.274 22.7378C267.358 22.7873 267.391 22.8864 267.525 23.0886" stroke="#53596E" stroke-width="2" stroke-linecap="round"/>
<path d="M267.625 23.2887C267.891 23.4538 268.424 23.7891 268.742 24.0548C269.074 24.3326 269.459 24.5877 269.809 24.9886C270.129 25.3543 270.46 25.6886 270.826 25.9068C271.218 26.1398 271.693 26.3892 272.127 26.6739C272.496 26.9154 272.862 27.1898 273.145 27.5741C273.454 27.9922 273.928 28.2587 274.379 28.5084C275.026 28.8672 275.43 29.1254 275.731 29.4922C276.037 29.8644 276.33 30.2263 276.665 30.5931C277.065 31.0326 277.531 31.2271 277.932 31.4943C278.333 31.7615 278.6 32.0938 278.767 32.4616C278.833 32.5291 278.932 32.5621 279.135 32.5962" stroke="#53596E" stroke-width="2" stroke-linecap="round"/>
<path d="M289.843 46.8076C289.909 47.0068 290.176 47.4061 290.376 47.8234C290.678 48.4509 291.641 49.0054 292.21 49.6409C292.749 50.242 292.878 50.975 293.228 51.4929C293.507 51.906 294.011 52.276 294.346 52.7274C294.676 53.1715 294.879 53.6771 295.13 54.1285C295.402 54.6189 295.68 55.1783 295.848 55.6297C296.023 56.1007 296.114 56.5134 296.248 56.9142C296.385 57.326 296.615 57.7144 296.864 58.2478C297.178 58.9182 297.315 59.3817 297.615 59.9992C297.881 60.5462 297.982 61.1832 298.133 61.7666C298.431 62.9157 298.25 63.9474 298.35 64.7035C298.427 65.29 298.516 66.021 298.567 67.0033C298.597 67.6 298.75 68.6512 298.833 69.5224C298.909 70.3131 298.884 70.959 298.934 71.7702C299.051 73.6677 298.918 75.0293 298.868 75.328C298.85 75.8249 298.917 76.3623 299.017 76.9108C299.051 77.228 299.051 77.6244 299.051 78.0327" stroke="#53596E" stroke-width="2" stroke-linecap="round"/>
<path d="M299.051 78.9335C299.051 79.2978 299.117 80.0324 299.134 80.8485C299.14 81.1374 299.051 82.2591 299.018 83.8764C298.991 85.178 298.784 86.3034 298.717 87.0705C298.629 88.0779 298.484 89.54 298.434 91.7683C298.414 92.6134 298.284 93.1429 298.233 93.8925C298.193 94.4881 298.05 95.1425 297.967 95.8115C297.909 96.2785 297.85 97.01 297.734 97.5965C297.602 98.2606 297.417 98.7134 297.25 99.2313C297.115 99.6486 297.049 100.048 296.933 100.449C296.801 100.903 296.483 101.315 296.349 101.75C296.215 102.184 296.082 102.651 295.965 103.051C295.948 103.152 295.948 103.251 295.848 103.453" stroke="#53596E" stroke-width="2" stroke-linecap="round"/>
<path d="M295.648 103.553C295.648 104.253 295.582 104.718 295.432 105.153C295.277 105.6 294.849 105.887 294.714 106.254C294.554 106.689 294.281 107.054 294.048 107.455C293.814 107.856 293.482 108.321 293.263 108.772C293.05 109.21 293.08 109.656 292.863 110.057C292.659 110.434 292.513 110.857 292.263 111.258C292.029 111.632 291.879 112.058 291.646 112.459C291.38 112.915 291.012 113.359 290.828 113.76C290.631 114.189 290.378 114.56 290.244 114.961C290.107 115.373 289.811 115.761 289.544 116.178C289.246 116.644 288.944 117.26 288.66 117.763C288.443 118.147 288.21 118.563 287.943 119.064C287.675 119.565 287.475 119.964 287.076 120.614C286.792 121.077 286.244 121.664 285.741 122.416C285.418 122.9 285.041 123.333 284.823 123.768C284.591 124.231 283.744 125.064 283.172 125.669C282.873 125.986 282.605 126.37 282.338 126.853C282.098 127.288 281.739 127.737 281.238 128.271C280.769 128.772 280.57 129.172 280.253 129.49C279.902 129.842 279.603 130.273 279.286 130.69C278.988 131.081 278.87 131.64 278.385 132.739C278.118 133.345 277.936 134.174 277.717 134.743C277.432 135.488 277.367 135.977 277.234 136.478C277.086 137.029 276.701 137.478 276.251 137.979C275.81 138.469 275.468 138.98 275.215 139.397C274.925 139.877 274.665 140.281 274.349 140.765C274.047 141.226 273.632 141.748 273.231 142.233C272.918 142.611 272.431 142.917 272.197 143.267C271.927 143.67 271.43 143.918 270.931 144.417C270.117 145.23 269.463 145.485 269.078 145.935C268.54 146.565 267.797 147.216 267.06 147.937C266.494 148.49 265.726 149.254 265.342 149.622C264.953 149.994 264.691 150.389 264.175 150.956C263.798 151.369 263.49 151.79 262.907 152.456C262.459 152.969 262.123 153.657 261.755 154.092C261.474 154.425 261.188 154.792 260.838 155.11C260.381 155.524 259.987 156.26 259.687 156.777C259.385 157.299 258.722 157.793 258.252 158.213C258.152 158.395 258.019 158.563 257.852 158.713C257.784 158.797 257.751 158.896 257.617 159.098" stroke="#53596E" stroke-width="2" stroke-linecap="round"/>
<path d="M257.417 159.498C257.251 159.697 257.051 160.097 256.901 160.497C256.738 160.932 256.218 161.198 255.651 161.482C255.19 161.714 254.453 162.362 253.849 162.816C253.462 163.108 253.182 163.499 252.632 163.817C252.051 164.153 251.35 164.666 250.896 165.068C250.581 165.348 249.553 166.097 248.629 166.769C248.152 167.116 247.811 167.437 247.295 167.869C246.347 168.664 245.909 168.739 245.825 168.756C245.394 168.843 246.54 168.207 246.907 167.972C247.326 167.705 247.507 167.272 247.841 166.889C248.269 166.399 248.774 166.105 249.242 165.838C249.589 165.64 249.876 165.403 250.077 165.419C250.397 165.446 249.413 165.869 249.012 166.102C248.596 166.345 248.278 166.702 248.094 167.103C247.911 167.501 247.411 167.637 246.961 167.821C246.334 168.077 245.91 168.203 245.526 168.521C245.172 168.813 245.075 169.304 244.742 169.705C244.273 170.269 243.642 170.471 243.207 170.707C242.787 170.934 242.109 171.504 241.357 171.99C240.909 172.28 240.506 172.475 240.105 172.758C239.685 173.054 238.938 173.009 238.503 173.125C238.02 173.254 237.009 174.104 236.219 174.593C235.831 174.833 235.401 174.977 234.735 175.21C234.183 175.403 233.602 175.709 233.066 175.944C232.477 176.202 232.099 176.444 231.399 176.827C230.682 177.22 230.231 177.511 229.448 177.828C228.679 178.14 227.929 178.646 227.495 178.813C227.1 178.965 226.166 179.41 225.393 179.847C224.794 180.185 224.128 180.679 223.426 180.948C222.596 181.265 222.191 181.382 221.79 181.615C221.339 181.878 220.724 182.048 220.289 182.216C219.873 182.376 219.323 182.515 218.888 182.816C218.47 183.105 217.887 183.149 217.487 183.234C217.047 183.326 216.619 183.417 216.336 183.467C215.824 183.556 215.552 184.216 214.321 184.368C213.421 184.479 212.817 184.985 212.018 185.35C210.595 186.002 210.081 186.086 209.581 186.236C209.057 186.393 208.68 186.52 208.163 186.786C207.613 187.068 207.179 187.252 206.695 187.42C206.258 187.571 205.712 187.587 205.194 187.654C204.717 187.716 204.277 187.953 203.876 188.121C203.465 188.292 202.909 188.287 202.358 188.504C201.758 188.74 201.274 188.888 200.807 189.137C200.379 189.366 200.073 189.754 199.623 190.038C199.009 190.425 198.572 190.423 198.072 190.606C197.937 190.656 197.805 190.689 197.688 190.739C197.57 190.789 197.471 190.855 197.369 191.023" stroke="#53596E" stroke-width="2" stroke-linecap="round"/>
<path d="M197.969 190.523C197.77 190.589 197.371 190.855 196.97 191.039C196.556 191.23 196.17 191.39 195.786 191.639C195.409 191.884 195.003 192.222 194.485 192.341C194 192.452 193.402 192.591 192.95 192.724C192.477 192.864 192.167 193.191 191.467 193.424C190.735 193.669 189.869 193.726 189.098 193.842C188.5 193.932 187.897 194.458 187.379 194.626C186.91 194.778 186.462 195.159 186.061 195.343C185.632 195.54 185.261 195.859 184.86 196.044C184.446 196.234 183.994 196.46 183.36 196.66C182.662 196.882 182.093 197.16 181.476 197.278C180.531 197.458 180.157 197.695 179.756 197.745C178.66 197.884 177.155 199.162 176.737 199.346C176.212 199.578 175.754 199.797 175.336 199.93C174.852 200.064 174.453 200.197 174.002 200.264C173.852 200.297 173.654 200.363 173.35 200.431" stroke="#53596E" stroke-width="2" stroke-linecap="round"/>
<path d="M197.369 191.023C197.17 191.056 196.77 191.19 196.37 191.323C195.917 191.474 195.369 191.556 194.985 191.673C194.556 191.805 194.268 192.19 193.868 192.324C193.767 192.358 193.668 192.391 193.567 192.424C193.467 192.458 193.368 192.491 193.266 192.625" stroke="#53596E" stroke-width="2" stroke-linecap="round"/>
<path d="M173.049 200.631C172.85 200.664 172.451 200.797 171.951 200.947C171.427 201.104 171.05 201.298 170.649 201.431C170.226 201.572 169.617 201.466 168.384 201.465C167.725 201.464 167.347 201.698 166.099 201.749C165.407 201.777 164.945 201.964 164.164 202.115C161.883 202.557 161.376 202.233 159.802 202.316C158.563 202.381 156.184 202.333 154.909 202.349C153.33 202.37 152.869 202.533 151.708 202.616C149.334 202.786 147.597 202.666 146.852 202.716C143.9 202.914 143.362 202.833 142.745 202.916C141.436 203.092 141.026 203.099 140.625 203.233C139.894 203.477 138.724 203.399 137.144 203.45C135.759 203.494 134.086 203.567 133.011 203.617C132.068 203.66 130.317 203.634 129.366 203.65C128.415 203.667 128.315 203.7 128 203.717C127.685 203.734 127.157 203.734 126.612 203.834" stroke="#53596E" stroke-width="2" stroke-linecap="round"/>
<path d="M126.51 203.974C126.478 203.974 126.445 203.974 124.887 203.974C123.328 203.974 120.244 203.974 118.606 203.958C116.871 203.941 116.674 203.843 115.293 203.794C114.01 203.748 111.542 203.777 110.206 203.761C108.28 203.738 107.428 203.614 107.001 203.483C106.337 203.278 105.592 203.319 104.808 203.204C102.629 202.884 101.954 203.089 100.128 203.007C98.7319 202.945 96.0362 202.99 94.5994 202.958C92.7633 202.916 92.1799 202.729 91.5248 202.532C90.9859 202.37 90.5076 202.335 89.9503 202.286C89.4694 202.243 88.9671 202.007 88.5396 201.909C88.1129 201.811 87.6548 201.68 87.098 201.531C86.2716 201.311 85.7857 201.351 85.2284 201.22C84.7931 201.118 84.3435 200.893 83.9161 200.712C83.4884 200.531 83.1945 200.14 82.8664 199.827C82.7676 199.648 82.6692 199.45 82.5221 199.286C82.44 199.22 82.3426 199.187 82.2422 199.154" stroke="#53596E" stroke-width="2" stroke-linecap="round"/>
<path d="M135.558 54.6536C135.727 54.5134 136.064 54.2329 136.486 53.8806C136.908 53.5285 136.966 53.1347 137.008 52.7263C137.053 52.3011 137.415 51.8676 137.767 51.6273C138.129 51.3808 138.513 51.2475 138.852 50.8678C139.19 50.4876 139.527 49.9821 140.006 49.474C140.269 49.1939 140.541 48.9667 142.197 47.0166C143.008 46.0611 143.609 45.3663 144.706 43.7621C144.938 43.4225 145.018 43.2528 145.549 42.623C146.08 41.9932 147.056 40.906 147.628 40.2484C148.745 38.9645 149.157 38.0423 149.566 37.3247C149.877 36.7774 150.311 36.1281 150.903 35.4941C151.365 34.9982 151.523 34.3828 151.805 33.8747C152.215 33.1358 152.842 32.3858 153.382 31.7903C153.69 31.4501 154.28 30.8078 154.565 30.3119C154.781 29.9371 154.875 29.566 155.058 29.2137C155.279 28.7862 155.353 28.2431 155.424 27.6657C155.451 27.4517 155.495 27.2007 155.536 26.9333C155.578 26.8332 155.662 26.8053 155.719 26.7492C155.776 26.693 155.804 26.6094 155.833 26.3542" stroke="#53596E" stroke-width="2" stroke-linecap="round"/>
<path d="M289.726 46.9663C289.587 46.7703 288.914 46.3209 288.377 45.9678C287.97 45.7006 287.616 45.5032 287.292 45.2637C286.936 45.0011 286.631 44.5182 286.39 44.1938C286.127 43.8385 285.758 43.6447 285.335 43.167C284.868 42.6388 284.687 42.0971 284.504 41.7301C284.338 41.397 284.18 41.0547 283.927 40.7164C283.67 40.3729 283.421 39.8163 283.194 39.4353C282.948 39.0218 282.661 38.6336 282.462 38.2387C282.173 37.666 281.956 36.4981 281.646 35.761C281.503 35.4214 281.112 35.2816 280.843 34.986C280.575 34.6903 280.267 34.4369 280.027 34.1134C279.894 33.9353 279.927 33.6766 279.872 33.4937C279.816 33.4223 279.704 33.3945 279.633 33.3243C279.561 33.2542 279.534 33.1427 279.336 32.8589" stroke="#53596E" stroke-width="2" stroke-linecap="round"/>
<path d="M276.197 27.6664C276.752 27.39 277.866 26.4605 279.215 25.4374C280.406 24.5353 281.495 23.764 282.613 22.9698C284.119 21.8999 286.519 21.0619 287.869 20.4575C289.452 19.7486 291.544 18.9236 293.724 18.0401C297.826 16.3777 300.923 16.0429 303.453 15.4316C304.907 15.0803 307.17 15.105 309.267 14.7812C310.632 14.5703 311.737 14.0833 312.572 13.7581C313.545 13.3786 318.397 13.5222 324.956 13.7079C328.226 13.8004 329.507 14.4518 330.717 15.0561C332.263 15.8282 333.694 15.8475 336.387 16.0345C337.805 16.133 338.722 16.5007 339.186 16.6388C339.666 16.7815 339.838 17.4302 340.257 17.8922C341.57 19.3414 339.657 21.1456 338.589 22.5902C337.832 23.6148 337.334 25.6063 336.818 27.3356C336.344 28.9242 335.749 31.0105 335.33 32.1285C334.855 33.3957 334.169 34.8236 333.655 36.3142C333.159 37.7551 332.678 38.8265 332.167 40.2222C331.521 41.9875 328.692 43.8399 327.005 45.11C325.715 46.0806 324.589 47.385 323.839 48.5518C323.07 49.7496 321.423 50.182 320.305 50.6007C319.114 51.0467 317.889 51.7619 316.584 52.4612C314.783 53.4266 312.586 53.8109 311.141 53.9518C308.869 54.1735 305.512 54.3691 301.15 54.3719C299.368 53.8136 298.254 53.4424 296.21 53.3014C295.739 53.2554 295.463 53.1632 295.178 53.0683" stroke="#53596E" stroke-width="2" stroke-linecap="round"/>
<path d="M167.331 15.105C165.575 13.9046 161.67 10.5605 160.077 9.29181C159.05 8.47303 157.382 8.2213 155.706 8.08033C154.455 7.9751 153.195 7.38387 151.704 6.96516C150.018 6.4914 148.171 6.2673 146.958 6.08028C145.723 5.88984 144.726 5.15073 143.562 4.54639C142.228 3.8538 140.265 3.38655 137.704 3.05577C136.322 2.87725 134.682 2.17507 132.68 1.75357C129.711 1.12888 128.536 1.42697 126.819 1.19528C122.617 0.628141 119.988 1.42697 117.745 1.89035C114.363 2.58915 113.183 2.2644 112.345 2.77104C109.894 4.25416 111.782 9.48861 112.013 12.0763C112.144 13.5321 112.803 14.8202 113.408 15.9382C114.051 17.1281 114.941 18.6333 115.455 19.8462C116.019 21.1769 117.175 22.3571 117.92 23.475C118.638 24.5524 118.944 25.891 119.826 27.1039C121.123 28.8864 123.5 31.0105 124.572 31.8968C125.589 32.7374 126.57 33.8019 127.503 34.9659C128.717 36.4821 130.199 37.0623 131.317 37.7127C132.479 38.3884 133.365 39.3848 134.342 40.271C135.319 41.1574 136.156 42.1762 137.179 42.7387C138.212 43.3064 139.411 43.4826 140.621 43.8092C140.984 43.9071 141.454 43.8566 141.784 43.9948C142.113 44.133 142.297 44.4093 142.53 44.6438C142.764 44.8783 143.04 45.0625 143.325 45.2523" stroke="#53596E" stroke-width="2" stroke-linecap="round"/>
<path d="M296.468 38.5292C297.044 38.3383 298.198 37.5687 299.357 37.0841C300.989 36.4015 303.117 35.4451 304.275 34.8187C305.473 34.171 306.878 33.1363 308.084 32.4072C309.73 31.4124 311.796 31.1053 313.435 30.6713C314.794 30.3116 315.847 29.6587 317.005 29.0323C318.451 28.5014 320.377 27.9228 321.635 27.5365C321.925 27.4396 322.212 27.3441 323.086 26.9564" stroke="#79819D" stroke-width="20" stroke-linecap="round"/>
<path d="M139.367 22.6167C138.696 21.8471 137.347 21.2684 135.949 20.3065C134.236 19.1285 132.718 17.5073 131.56 16.8809C130.438 16.2748 129.533 15.8668 129.29 15.7699C128.229 15.3468 131.549 16.4426 132.948 17.1167C134.196 17.7178 135.311 18.3695 136.517 19.1419C138.02 20.104 139.94 19.9144 141.819 20.0605C143.237 20.1708 144.282 20.1112 144.716 20.0128C145.936 19.7363 144.094 22.6109 143.613 23.7219C143.079 24.9526 141.398 25.1222 140.144 25.4607C139.309 25.6861 138.502 25.7008 137.972 25.8469C136.789 26.1736 136.381 23.7797 135.176 22.3809C134.31 21.375 133.297 20.3079 132.138 19.437C131.065 18.6308 130.112 18.4707 129.582 18.1828C129.31 18.0348 129.148 17.704 129.097 17.4132C128.998 16.8429 129.432 16.2545 129.721 15.6296C130.026 14.9698 129.628 14.1338 129.196 13.4597C128.991 13.1406 128.668 12.9765 128.329 12.9259C127.991 12.8753 127.609 12.9707 127.364 13.2109C127.12 13.451 127.025 13.8329 126.975 14.2683C126.926 14.7038 126.926 15.1811 126.926 15.0943" stroke="#79819D" stroke-width="20" stroke-linecap="round"/>
<path d="M137.92 22.906C137.825 22.6196 137.729 22.3331 137.585 22.0424C137.44 21.7516 137.249 21.4652 137.198 21.1744C137.148 20.8836 137.243 20.5972 137.342 20.5914" stroke="#79819D" stroke-width="20" stroke-linecap="round"/>
<path d="M142.709 33.1062C142.496 33.1769 142.068 33.5325 141.852 33.9791C141.732 34.2276 141.745 34.5328 141.798 34.641C142.098 35.2532 142.599 33.5732 143.277 32.8411C143.706 32.3782 143.85 31.823 144.082 30.8606C144.217 30.3036 144.493 29.7537 144.814 29.2519C145.209 28.634 145.742 27.6822 146.01 27.2168C146.348 26.6302 146.884 25.8249 147.33 25.0939C147.799 24.3277 148.488 23.4364 149.009 22.8077C149.392 22.3447 149.739 21.8619 150.205 21.5395C150.686 21.2061 151.38 20.0475 151.883 19.2908C152.202 18.8115 152.526 18.2203 152.687 17.7913C152.864 17.3177 153.31 17.0763 153.775 16.8627C154.49 16.5334 154.81 16.1488 155.239 15.9694C155.343 15.9256 155.452 15.8982 155.313 15.8799C154.285 15.746 153.85 15.6132 152.888 15.5227C152.303 15.4678 151.815 15.2555 151.208 15.2014C150.685 15.1547 150.067 14.8271 149.387 14.7376C148.636 14.6388 147.781 14.2551 147.192 14.1662C146.526 14.0659 145.96 13.756 145.282 13.6307C144.608 13.5062 144.103 13.3276 143.585 13.1846C143.121 13.0564 142.64 12.792 142.086 12.6314C141.48 12.4557 140.89 12.0423 140.461 11.8993C140.032 11.7563 139.463 11.6845 138.855 11.5956C138.286 11.5126 137.572 11.4703 137.016 11.3461C136.353 11.1979 135.607 10.8641 135.106 10.7211C134.614 10.581 134.035 10.5427 133.305 10.3821C132.106 10.1185 130.475 9.75871 128.54 9.63178C127.642 9.57287 126.717 9.47166 126.091 9.32867C125.165 9.11707 124.003 9.15033 122.898 9.14926C121.568 9.14797 119.931 9.43417 119.789 9.54181C119.731 9.58509 119.646 9.43738 119.627 9.43578C119.609 9.43417 119.644 9.54021 119.733 9.64785C120.22 10.2381 121.568 10.1829 122.231 10.4164C122.741 10.5957 123.106 11.0761 123.446 11.5399C123.98 12.2688 125.319 12.7899 125.837 13.1289C126.666 13.6708 127.459 14.5357 128.246 15.1457C129.207 15.8907 129.746 15.9324 130.477 16.5729C131.174 17.183 132.028 17.8218 132.763 18.3943C133.347 18.8201 133.888 19.181 134.191 19.3947C134.318 19.5023 134.388 19.6084 134.461 19.7176" stroke="#79819D" stroke-width="12" stroke-linecap="round"/>
<path d="M121.744 9.79568C121.421 9.76765 120.811 9.6827 120.339 9.52109C119.989 9.40102 119.433 9.14922 119.011 8.95639C118.316 8.63859 117.951 8.45094 117.669 8.3524C116.875 8.07495 116.662 7.95569 116.4 7.82827C116.14 7.7017 115.94 7.51736 115.713 7.3258C115.495 7.14106 115.303 6.96519 115.196 6.77363C115.067 6.54234 114.877 6.35611 114.743 6.22125C114.602 6.07898 114.439 5.98743 114.304 5.8462C114.225 5.76314 114.183 5.67609 114.19 5.64041C114.224 5.46945 114.395 6.39264 114.445 6.84265C114.465 7.01886 114.481 7.58234 114.509 8.35325C114.533 9.01015 114.792 9.15772 114.87 9.33484C114.968 9.558 115.089 9.86449 115.202 10.2334C115.279 10.4826 115.358 10.7293 115.408 11.1948C115.494 12.0001 115.556 12.1734 115.67 12.3858C115.786 12.6042 115.854 12.8385 115.918 13.0301C115.983 13.2261 115.995 13.4052 116.031 13.5963C116.086 13.8928 116.208 14.0423 116.3 14.2124C116.343 14.2932 116.378 14.3825 116.434 14.4672C116.463 14.5099 116.491 14.552 116.477 14.4825C116.371 13.9425 116.194 13.6761 116.13 13.4916C116.067 13.3087 115.87 13.0959 115.706 12.911C115.676 12.8768 115.628 12.8683 115.614 12.833C115.54 12.6547 115.67 12.4164 115.586 12.2174C115.506 12.0292 115.331 11.7937 115.274 11.5592C115.199 11.2521 115.132 11.0283 115.047 10.7526C114.936 10.3924 114.99 10.1227 114.955 9.88849C114.948 9.83862 114.948 9.79653 114.948 9.82393C114.948 9.94944 115.074 10.443 115.3 11.2549C115.534 12.0937 115.571 12.6406 115.641 12.8171C115.808 13.2348 116.009 13.5886 116.102 13.8652C116.179 14.0968 116.349 14.3107 116.441 14.5097C116.531 14.7024 116.661 14.9478 116.703 15.2243C116.74 15.4574 116.929 15.8101 117.029 16.1518C117.087 16.35 117.17 16.5483 117.354 16.7184C117.531 16.8816 117.778 17.114 117.886 17.32C118.007 17.5531 118.147 17.8641 118.352 18.1689C118.711 18.7031 118.968 18.8844 119.11 19.0545C119.322 19.3081 119.634 19.6489 120.099 20.1431C120.509 20.5775 120.639 20.8662 120.795 21.0225C120.96 21.1884 121.007 21.4328 121.113 21.6452C121.246 21.9105 121.531 22.0699 121.827 22.5983C121.984 22.8786 122.192 23.3637 122.392 23.7354C122.969 24.8086 123.442 25.1136 123.647 25.2912C123.694 25.3313 123.739 25.3549 123.726 25.3203C123.601 24.9959 123.288 24.8749 123.139 24.7188C123.007 24.581 122.779 24.4782 122.629 24.3296C122.486 24.1865 122.297 24.0679 122.134 23.9683C121.958 23.8611 121.83 23.6432 121.737 23.4731C121.628 23.2729 121.433 23.091 121.327 22.9209C121.227 22.7623 121.108 22.6094 120.952 22.4327C120.683 22.1284 120.414 21.748 120.293 21.3993C120.213 21.1686 120.046 21.0098 119.911 20.8044C119.773 20.5944 119.551 20.3591 119.373 20.1178C119.228 19.9208 119.167 19.7355 119.111 19.5302C119.061 19.3507 118.997 19.1834 118.682 18.1098C118.391 17.1213 117.847 15.2282 117.538 14.0431C117.228 12.8581 117.172 12.4376 117.143 11.9897C117.114 11.5418 117.114 11.0793 117.051 10.3995C116.988 9.71965 116.862 8.83661 116.762 8.24155C116.557 7.0254 116.449 6.83777 116.357 6.64621C116.264 6.45213 116.209 6.24313 116.173 5.98807C116.165 5.93107 116.152 5.88889 116.166 5.85321C116.196 5.77419 116.307 5.7466 116.384 5.70434C116.424 5.6826 116.448 5.63404 116.4 5.61238C116.351 5.59072 116.225 5.59072 116.181 5.58371C116.078 5.56738 116.476 5.52021 116.682 5.46351C116.874 5.41039 117.155 5.37835 117.403 5.30784C117.752 5.20886 117.963 5.22289 118.21 5.19443C118.458 5.16601 118.727 5.08103 118.954 5.04577C119.193 5.00871 119.589 4.99608 119.924 4.96082C120.171 4.93474 120.397 4.8831 120.603 4.82639C120.826 4.76517 121.021 4.67072 121.191 4.64927C121.407 4.62202 121.686 4.5433 121.906 4.52185C122.391 4.47455 123.215 4.45835 123.414 4.4369C123.725 4.40327 124.037 4.3734 124.348 4.35195C124.463 4.34401 125.093 4.31649 126.02 4.3235C126.589 4.32779 126.84 4.49998 127.031 4.54288C127.31 4.60539 127.477 4.64184 127.682 4.76905C128.063 5.0046 128.836 4.79815 129.239 4.7767C129.63 4.75587 129.941 4.7132 130.111 4.73401C130.297 4.75678 130.577 4.88225 130.79 4.95339C130.875 4.98164 130.96 4.99608 131.003 5.00309C131.01 5.00423 130.962 5.02411 130.919 5.01732C130.728 4.98693 130.551 4.81259 130.367 4.73444C130.182 4.65624 129.495 4.57133 129.05 4.45856C128.731 4.37759 128.187 4.4575 127.988 4.52865C127.772 4.60613 127.479 4.5433 126.745 4.51484C126.447 4.5033 126.261 4.40144 125.971 4.36618C125.865 4.35333 125.751 4.34495 125.316 4.32371C124.293 4.27383 123.571 4.28845 123.437 4.24598C122.984 4.10217 122.651 4.18906 122.186 4.15381C121.11 4.07237 120.91 4.2171 120.676 4.2738C120.431 4.33317 120.202 4.34452 119.933 4.36597C119.725 4.38251 119.536 4.48639 119.281 4.52865C118.999 4.57559 118.715 4.59937 118.446 4.65607C118.257 4.69582 118.064 4.76926 117.837 4.79071C117.606 4.81257 117.356 4.86865 117.157 4.93916C116.995 4.99676 116.818 4.99608 116.598 5.03133C116.339 5.07308 116.138 5.10906 115.912 5.20803C115.842 5.23864 115.757 5.26452 115.692 5.29297C115.628 5.32143 115.586 5.34946 115.669 5.34288C115.966 5.31947 116.292 5.25092 116.525 5.26494C116.775 5.27999 117.266 5.51809 118.274 5.93434C118.907 6.19567 119.828 6.4487 120.746 6.69824C121.664 6.94778 122.561 7.15802 123.233 7.34342C123.906 7.52883 124.326 7.68301 124.613 7.77645C124.9 7.86989 125.04 7.89793 126.43 8.46602C127.819 9.03412 130.455 10.1414 131.868 10.7259C133.282 11.3103 133.394 11.3384 133.508 11.3808C133.739 11.467 133.975 11.6352 134.489 11.9661C134.869 12.2109 135.521 12.5633 136.112 12.8211C136.704 13.079 137.222 13.2191 137.938 13.3824C138.654 13.5457 139.551 13.728 140.139 13.8639C140.727 13.9998 140.98 14.0839 141.979 14.2534C142.978 14.4228 144.716 14.6751 145.821 14.7981C146.927 14.9211 147.347 14.9071 147.655 14.8718C148.416 14.7847 148.587 14.6662 148.658 14.624C148.729 14.5818 148.533 14.188 148.201 13.5523C147.894 12.9659 147.795 12.4312 147.718 11.9795C147.629 11.4654 147.512 11.1553 147.421 11.0916C147.074 10.8497 146.805 10.8584 146.599 10.7658C146.411 10.6808 146.28 10.4906 146.118 10.3343C145.932 10.1561 145.898 9.91036 145.862 9.60561C145.837 9.39173 145.658 9.20189 145.481 9.05281C145.323 8.92036 145.078 9.11609 144.865 9.02456C144.658 8.93547 144.231 8.55203 143.916 8.38723C143.728 8.28858 143.534 8.16806 143.364 8.13217C143.191 8.0956 142.996 8.0262 142.77 7.99774C142.547 7.96982 142.387 7.89878 142.182 7.80682C142.005 7.72766 141.723 7.6159 141.389 7.47425C141.202 7.3947 141.071 7.26166 140.893 7.1627C140.622 7.01096 140.264 6.99237 140.086 6.95011C139.879 6.90062 139.711 6.83692 139.527 6.80846C139.266 6.76802 138.99 6.68146 138.706 6.58207C138.515 6.51498 138.31 6.45465 137.759 6.28518C137.367 6.16443 137.135 6.15733 136.866 6.06537C136.591 5.97138 136.356 5.91692 136.172 5.84578C135.866 5.72758 135.506 5.77506 135.266 5.75361C135.079 5.73692 134.912 5.66208 134.728 5.59794C134.499 5.51834 134.317 5.52021 134.147 5.49175C133.947 5.4583 133.765 5.35031 133.56 5.32886C133.366 5.30865 133.17 5.26537 132.894 5.24392C132.603 5.22128 132.208 5.18042 131.812 5.15196C131.574 5.13488 131.386 5.05299 131.237 4.98227C131.205 4.96702 131.216 4.91198 131.237 4.88331C131.334 4.75056 131.555 4.69961 131.725 4.58578C131.762 4.56071 131.809 4.57133 131.838 4.59236C131.9 4.6374 131.895 4.75482 131.93 4.85379C132.045 5.17707 132.812 5.44673 133.56 5.87084C134.288 6.28338 134.993 6.35483 135.523 6.45359C136.521 6.63986 136.962 6.83607 137.429 6.92123C137.89 7.00516 138.418 7.11895 138.86 7.16928C139.144 7.20158 139.482 7.23278 139.773 7.28948C140.117 7.35636 140.459 7.3602 140.729 7.4099C141.064 7.47155 141.578 7.55813 141.883 7.60103C142.183 7.64325 142.483 7.71444 142.726 7.74969C142.895 7.77437 143.065 7.85545 143.214 7.88434C143.404 7.92091 142.742 7.65922 142.515 7.53774C142.344 7.44673 142.175 7.38908 142.061 7.29692C142.049 7.28698 142.047 7.35935 142.075 7.40926C142.136 7.51791 142.623 7.76881 143.337 8.17868C143.649 8.35751 143.841 8.50446 144.187 8.6888C144.534 8.87314 145.024 9.0974 145.438 9.26199C146.164 9.55085 146.801 9.66784 147.289 9.74556C147.57 9.79039 148.144 9.95029 149.083 10.1833C149.935 10.3943 150.399 10.5742 150.554 10.6165C151.029 10.7457 151.643 10.8856 152.069 10.9775C152.422 11.0537 153.155 11.3783 153.817 11.6217C154.547 11.89 154.788 11.7351 155.191 11.834C155.664 11.9504 156.344 12.0044 156.65 12.0396C156.7 12.0454 156.742 12.0468 156.743 12.0538C156.743 12.0608 156.701 12.0749 156.658 12.0751C156.373 12.0765 155.909 11.6943 155.717 11.5093C155.579 11.3772 155.384 11.2967 155.172 11.2753C154.93 11.2508 154.621 11.1837 154.365 11.0773C154.163 10.9934 153.702 10.8592 153.381 10.7446C153.032 10.6201 152.652 10.3903 152.341 10.3551C151.946 10.3103 151.718 10.2493 151.315 10.2064C150.945 10.1671 150.755 10.0369 150.543 9.9728C150.149 9.85373 149.905 9.92311 149.728 9.87384C149.493 9.80847 149.311 9.71073 149.133 9.67548C148.902 9.62936 148.645 9.55528 148.39 9.53383C148.203 9.51808 148.008 9.47033 147.739 9.41363C147.472 9.35736 147.272 9.34291 147.059 9.32146C146.829 9.29813 146.551 9.24352 146.267 9.20125C146.071 9.17216 145.913 9.01755 145.813 8.93218C145.715 8.84875 146.081 9.0167 146.201 9.17131C146.63 9.72543 146.577 9.96473 146.704 10.3455C146.997 11.2238 147.002 11.4089 147.009 12.1993C147.014 12.6775 146.65 13.1346 145.939 14.0002C145.408 14.6483 144.43 15.6368 143.827 16.2478C143.224 16.8587 143 17.041 142.73 17.282C142.46 17.523 142.152 17.8174 141.965 17.983C141.778 18.1487 141.722 18.1767 140.502 19.6419C139.282 21.107 136.899 24.0085 135.286 26.1129C133.673 28.2172 132.902 29.4367 132.491 30.1139C131.926 31.0436 131.895 31.6097 131.853 31.9595C131.847 32.011 131.825 32.0514 131.797 32.0801C131.768 32.1088 131.726 32.1228 131.677 32.109C131.414 32.0359 131.076 31.7983 130.34 31.6352C130.056 31.5721 129.844 31.4721 129.553 31.3661C129.102 31.2014 128.867 31.0626 128.668 30.9059C128.507 30.7794 128.328 30.6795 128.102 30.5098C127.691 30.2014 127.479 30.1273 127.302 30.0069C127.089 29.862 126.884 29.7875 126.714 29.6811C126.555 29.5819 126.346 29.4622 126.19 29.2921C125.987 29.0705 125.737 28.8395 125.49 28.6479C125.244 28.4577 125.128 28.2304 124.973 28.1026C124.793 27.9552 124.591 27.7912 124.421 27.6005C124.044 27.1782 123.741 26.8857 123.465 26.5884C123.263 26.3704 123.132 26.1356 122.976 25.9296C122.815 25.7167 122.665 25.5265 122.558 25.3279C122.434 25.0962 122.438 24.8749 122.297 24.7048C122.155 24.5343 122.014 24.2531 121.872 23.9547C121.744 23.7702 121.631 23.6007 121.602 23.4446C121.616 23.4159 121.658 23.4019 121.786 23.3875" stroke="#79819D" stroke-width="5" stroke-linecap="round"/>
<path d="M142.514 41.2268C142.359 41.2128 142.048 41.1282 141.764 41.0501C141.553 40.992 141.312 40.8734 141.021 40.8235C140.821 40.7892 140.759 40.4631 140.42 40.1307C140.119 39.836 139.556 39.7546 139.336 39.6134C139.1 39.4616 138.595 39.2602 138.119 38.9767C137.769 38.7683 137.532 38.5373 137.333 38.4239C137.161 38.3264 136.993 38.24 136.704 38.0287C135.785 37.3575 135.536 36.9666 135.294 36.8451C135.065 36.7304 134.813 36.4 134.579 36.2507C134.384 36.1263 134.232 36.0169 134.09 35.8897C133.916 35.7332 133.652 35.621 133.348 35.4157C133.087 35.2398 132.873 35.1538 132.625 35.0472C132.358 34.9319 132.208 34.7146 131.847 34.4814C131.487 34.2485 131.301 34.1344 131.174 33.9573C131.032 33.7612 130.933 33.5823 130.721 33.3486C130.541 33.1501 130.254 32.9596 130.048 32.775C129.908 32.6489 129.772 32.4499 129.637 32.2583C129.491 32.0508 129.376 31.8552 129.227 31.6707C129.084 31.4931 128.951 31.2606 128.837 31.1041C128.761 30.999 129.134 31.1884 129.346 31.3366C129.573 31.4953 129.784 31.6267 130.66 31.9238C131.007 32.0414 131.341 32.2494 132.373 32.9698C132.929 33.3583 133.31 33.623 133.656 33.8772C134.159 34.2471 134.711 34.5991 135.267 35.1903C135.654 35.6016 136.202 36.2862 136.547 36.7239C137.231 37.5915 137.529 37.8 137.742 37.9556C137.917 38.0834 137.912 38.3377 138.075 38.6488C138.176 38.8433 138.28 39.0173 138.429 39.1169C138.609 39.2374 138.845 39.5125 139.108 39.7183C139.262 39.8384 139.412 39.9662 139.512 40.1078C139.618 40.2588 139.795 40.3064 139.873 40.3486C139.913 40.3704 139.936 40.4189 139.916 40.4336C139.745 40.5548 139.569 40.2507 139.414 40.1159C139.25 39.9737 139.074 39.8965 138.869 39.7901C138.685 39.695 138.522 39.6412 138.535 39.62C138.647 39.4425 139.338 39.7529 140.052 39.9723C140.591 40.1376 140.828 40.2066 141.414 40.3979C141.689 40.4873 141.918 40.5328 142.229 40.6317C142.35 40.6702 142.428 40.7311 142.506 40.7734C142.672 40.8635 142.641 41.0565 142.669 41.1132C142.683 41.1415 142.753 41.1138 142.796 41.0786C142.968 40.9373 142.995 40.7179 143.15 40.5619C143.303 40.4088 143.56 40.2788 143.9 40.0316C144.373 39.6866 144.609 39.4157 144.757 39.2241C144.899 39.0412 145.089 38.7369 145.295 38.5443C145.492 38.3612 145.881 37.7473 146.215 37.0947C146.344 36.8424 146.478 36.6404 146.626 36.4633C146.809 36.2452 147.043 35.9472 147.186 35.7412C147.319 35.548 147.44 35.198 147.814 34.4908C148.352 33.473 148.7 33.3138 148.898 33.122C149.202 32.8286 149.253 32.4924 149.394 32.1598C149.506 31.8963 149.649 31.6573 150.03 31.134C150.286 30.784 150.428 30.2845 150.534 30.0214C150.636 29.7685 150.837 29.1675 150.973 28.8534C151.085 28.5946 151.291 28.3723 151.426 28.1177C151.772 27.4655 151.942 26.8721 152.042 26.5319C152.133 26.2207 152.226 26.0643 152.381 25.8942C152.631 25.6208 152.778 25.2012 152.877 24.9179C153.07 24.3651 153.386 24.0824 153.514 23.8626C153.634 23.6569 153.798 23.4733 153.819 23.2257C153.84 22.9801 154.066 22.7938 154.342 22.6024C154.606 22.4194 155.026 21.3972 155.284 20.9181C155.51 20.4992 155.539 20.2597 155.737 20.0542C156.052 19.7256 156.317 19.5088 156.494 19.4236C156.707 19.3213 156.812 19.0424 157.433 18.4558C157.631 18.2691 157.941 18.1938 158.078 18.164C158.215 18.1343 158.201 18.1904 158.173 18.2403C158.044 18.4676 157.89 18.7145 157.664 18.9057C157.376 19.1486 157.352 19.3516 157.281 19.5428C157.177 19.8231 157.083 19.9607 157.026 20.1164C156.953 20.3156 156.729 20.456 156.566 20.6048C156.335 20.8163 156.234 21.0506 155.676 21.9681C155.554 22.1692 155.512 22.2255 155.322 22.5557C155.132 22.8859 154.796 23.4886 154.601 23.8552C154.351 24.3269 154.224 24.6036 154.047 24.8722C153.921 25.0631 153.574 25.6756 153.142 26.5389C152.892 27.0405 152.807 27.2519 152.652 27.5063C152.349 28.0034 152.114 28.1014 151.916 28.2715C151.702 28.4543 151.365 28.7945 151.137 28.9865C150.88 29.2026 150.486 29.6016 150.316 29.8076C150.223 29.9188 150.061 30.0412 149.94 30.1403C149.835 30.2268 150.243 30 150.428 29.809C150.499 29.6457 150.64 29.5047 150.817 29.3909C150.88 29.3764 150.965 29.3764 151.051 29.2915" stroke="#79819D" stroke-width="5" stroke-linecap="round"/>
<path d="M157.592 18.5454C157.875 18.404 158.157 18.3194 158.356 18.2413C158.536 18.1706 158.668 18.0366 158.774 17.8104C159.003 17.3228 159.29 17.2151 159.517 17.0877C159.677 16.9976 159.8 16.8893 159.885 16.8186C160.02 16.7062 160.183 16.818 160.275 16.8112C160.558 16.7901 160.735 16.5355 160.912 16.3799C161.157 16.1646 161.414 15.9689 161.584 15.9052C161.676 15.8708 161.74 15.785 161.783 15.6862C161.895 15.4259 161.684 15.1483 161.578 14.9782C161.459 14.7863 161.288 14.6666 161.147 14.511C160.951 14.2963 160.624 14.0584 160.396 13.8879C160.253 13.7804 160.029 13.7467 159.879 13.5343C159.719 13.3058 159.519 13.0815 159.313 12.9112C159.016 12.6644 158.825 12.5429 158.69 12.3943C158.554 12.2441 158.33 12.1326 158.145 11.9765C157.995 11.8494 157.805 11.7639 157.635 11.7143C157.451 11.721 157.253 11.7495 157.013 11.7143C156.9 11.707 156.718 11.707 156.53 11.707" stroke="#79819D" stroke-width="5" stroke-linecap="round"/>
<path d="M163.071 16.1668C163.282 16.1668 163.666 16.1528 163.743 16.1105C163.909 16.0204 163.963 15.7854 164.168 15.6576C164.341 15.5501 164.515 15.5017 164.671 15.3957C164.709 15.3701 164.714 15.3182 164.7 15.2825C164.636 15.1175 164.389 15.1194 164.226 15.0134C164.058 14.9041 163.922 14.7516 163.745 14.6382C163.557 14.5181 163.37 14.5248 163.129 14.4046C162.961 14.3206 162.803 14.3404 162.746 14.3264C162.543 14.2763 163.198 14.2835 163.319 14.3052C163.417 14.3226 163.157 14.1425 163.079 14.121C162.433 13.9428 162.264 15.8398 162.194 16.0458C162.116 16.2732 162.024 16.5618 161.967 16.7961C161.905 17.055 161.699 17.3553 161.543 17.4831C161.396 17.6042 161.288 17.808 161.189 17.9996C161.077 18.2143 160.977 18.3746 160.856 18.5377C160.737 18.6992 160.566 18.7858 160.403 18.8918C160.243 18.9956 160.043 19.1953 159.844 19.352C159.689 19.4739 159.392 19.5639 159.164 19.727C158.995 19.8484 158.853 19.9887 158.704 20.1235C158.556 20.2584 158.428 20.4134 158.273 20.5483C158.108 20.6904 157.961 20.7957 157.798 20.9376C157.689 21.0326 157.537 21.1499 157.339 21.2559C157.147 21.3589 156.746 21.5594 155.802 22.2417C155.131 22.727 154.158 23.6109 153.323 24.3877C152.488 25.1646 151.843 25.8374 151.441 26.2891C150.872 26.9282 150.544 27.42 150.176 27.8864C149.891 28.2475 149.707 28.5961 149.418 29.04C148.969 29.7293 148.688 30.2675 148.567 30.4369C148.251 30.8828 147.994 31.4712 147.824 31.6551C147.749 31.7362 147.584 31.8671 146.944 32.7938C146.393 33.5926 145.478 35.1223 144.931 36.0353C144.233 37.2001 144.072 37.5731 143.98 37.7215C143.845 37.9399 143.746 38.2522 143.605 38.8218C143.496 39.2628 143.352 40.0221 143.273 40.4331C143.161 41.0103 143.151 41.2964 143.116 41.551C143.044 42.0712 143.066 42.4695 143.144 42.7552C143.189 42.9229 143.151 43.0527 143.13 43.0954C143.037 43.2852 142.968 42.4891 142.812 41.2386C142.779 40.9714 142.727 40.8886 142.614 40.621C142.502 40.3534 142.319 39.9049 141.917 39.1763C141.515 38.4476 140.898 37.4524 140.51 36.7576C140.123 36.0627 139.982 35.6982 139.784 35.055C139.586 34.4117 139.333 33.5006 139.189 32.8911C139.017 32.0013 138.975 31.6564 138.953 31.5504C138.946 31.5005 138.946 31.4585 138.946 31.4151" stroke="#79819D" stroke-width="2" stroke-linecap="round"/>
<path d="M306.983 23.5471C306.831 23.4962 306.678 23.4453 305.415 23.3554C304.153 23.2655 301.785 23.1382 300.412 23.0471C299.039 22.9561 298.734 22.9052 297.278 22.828C295.822 22.7509 293.225 22.649 291.836 22.6475C290.342 22.6458 290.113 22.9291 289.87 23.0957C289.444 23.5201 289.161 23.855 289.02 24.0471C288.955 24.1628 288.904 24.3156 288.698 24.6273" stroke="#79819D" stroke-width="2" stroke-linecap="round"/>
<path d="M291.089 44.3021C291.268 44.3785 291.577 44.6864 291.86 44.8546C292.173 45.0408 292.426 45.3036 292.747 45.5868C293.247 46.0278 293.557 46.2295 293.866 46.4617C294.152 46.6768 294.432 46.8467 294.715 47.0917C295.011 47.3488 295.126 47.6955 295.421 48.0809C296.055 48.9086 296.129 49.5472 296.258 49.8562C296.29 49.9316 296.31 50.0101 296.323 49.9731C296.466 49.5694 295.85 49.1398 295.501 48.8424C295.221 48.6035 295.077 48.2386 294.935 47.8656C294.801 47.5147 294.537 47.2356 294.267 46.9139C293.957 46.5449 293.433 45.799 293.16 45.3063C292.949 44.9261 292.659 44.6115 292.709 44.6358C294.096 45.308 295.023 46.6662 295.588 47.0014C295.97 47.228 296.359 47.464 296.874 47.6962C297.41 47.9379 297.928 48.2356 298.302 48.6082C299.062 49.3677 299.652 49.47 300.051 49.7023C300.279 49.8353 300.553 49.9083 301.14 49.9727C302.382 50.1089 303.381 49.9091 303.944 49.8705C304.912 49.8041 306.281 49.7555 307.528 49.563C308.201 49.459 308.576 49.2664 308.999 49.1001C309.23 49.0094 309.448 48.8065 311.959 47.2252C314.471 45.6439 319.257 42.6649 321.774 41.0793C324.291 39.4938 324.393 39.3919 324.394 39.314C324.398 39.1508 323.68 39.1327 322.399 39.2218C321.624 39.2757 320.609 39.4892 319.881 39.6574C319.153 39.8256 318.745 39.9783 318.115 40.1716C316.653 40.6203 315.474 40.881 314.705 40.9837C312.829 41.2342 312.105 41.4458 311.155 41.9593C309.694 42.7484 309.3 42.8871 308.812 43.1691C308.173 43.5379 307.758 43.9148 307.307 44.1471C306.716 44.4508 306.266 44.5074 305.803 44.6871C304.872 45.0484 303.8 45.0984 302.743 45.1636C302.407 45.1844 302.175 45.228 301.983 45.2535C301.801 45.2776 301.686 45.4587 301.596 45.6126C301.191 46.3068 304.41 44.9194 305.115 44.8553C306.694 44.712 307.11 44.7651 307.726 44.637C308.659 44.4433 309.348 44.8669 309.67 45.0216C309.745 45.0574 309.786 45.1493 309.837 45.1505C310.164 45.1578 310.428 44.7142 310.852 44.6752C311.096 44.637 311.303 44.5853 311.47 44.534C311.56 44.5081 311.662 44.4827 311.767 44.4565" stroke="#79819D" stroke-width="5" stroke-linecap="round"/>
<path d="M325.809 38.5153C326.269 37.7739 327.093 36.7932 327.429 36.5999C327.885 36.3371 328.635 35.5356 329.01 34.9943C329.678 34.0305 329.897 33.6823 330.181 33.1422C330.401 32.7227 330.669 32.1916 330.901 31.753C331.217 31.1562 331.312 30.5961 331.454 30.1968C331.656 29.6288 332.007 28.5669 332.277 27.9982C332.734 27.0349 332.882 25.53 333.061 25.1049C333.383 24.3451 333.678 23.652 334.038 23.3168C334.319 23.0558 334.553 22.7771 334.707 22.4553C334.932 21.9883 335.221 21.4917 335.364 21.1182C335.544 20.6452 335.735 20.2062 336.121 19.9088C336.403 19.692 336.636 19.5357 336.752 19.4582C337 19.2924 335.107 19.7664 334.157 19.9968C333.936 20.0503 333.733 20.2294 333.424 20.2166C332.916 20.1957 332.369 19.8698 331.754 19.7796C330.856 19.648 330.544 19.4331 329.76 19.3425C329.205 19.2782 328.692 18.893 328.369 18.7256C328.289 18.6836 328.254 18.5597 328.291 18.4818C328.329 18.4039 328.456 18.3529 328.636 18.3776C329.427 18.4861 329.896 18.7634 330.283 18.6866C330.591 18.6258 331.053 18.7881 331.543 18.9046C332.37 19.1016 332.752 19.0458 333.316 19.1361C334.309 19.2949 334.732 19.2773 335.131 19.3162C335.525 19.3547 332.939 19.2279 332.446 19.0084C332.041 18.8279 331.521 18.5844 331.109 18.3016C330.625 17.9683 329.93 17.9147 329.411 17.8379C328.947 17.7691 328.589 17.7095 328.28 17.6065C327.859 17.4663 327.277 17.478 326.635 17.439C326.167 17.4106 325.811 17.3237 325.4 17.208C324.428 16.9346 323.06 17.0151 322.673 16.9248C322.093 16.7892 321.62 16.7064 320.605 16.6675C319.692 16.6324 318.558 16.7049 317.776 17.0644C317.002 17.4199 316.244 17.7079 315.614 17.9012C315.193 18.0307 314.778 18.1709 313.585 18.4536C312.723 18.658 312.232 19.0443 311.45 19.4046C309.667 20.2272 309.172 20.3575 308.427 20.7293C307.864 21.0102 307.295 21.2571 306.306 21.8088C305.633 22.1837 304.93 22.4399 303.753 22.9638C302.921 23.3343 301.66 24.0224 300.864 24.4016C299.409 25.095 298.859 25.2183 298.164 25.4366C297.661 25.5951 297.033 25.8093 295.892 26.3475C293.643 27.4082 293.072 27.4296 292.532 27.5715C291.912 27.7343 291.503 27.8925 291.18 28.188C290.861 28.4805 290.654 28.9711 290.332 29.3967C290.105 29.6962 289.933 29.9757 289.765 30.3353C289.444 31.0217 289.315 32.0836 288.982 32.5469C288.86 32.7158 288.699 33.0604 288.468 33.5353C288.157 34.173 288.671 34.7069 288.902 35.247C289.085 35.6743 289.211 36.0957 289.442 36.5718C289.696 37.0945 289.778 37.895 289.982 38.2827C290.144 38.5883 290.241 39.0523 290.305 39.491C290.323 39.6188 290.318 39.7977 290.267 39.9022C290.216 40.0068 290.114 40.0322 290.011 40.0072C289.56 39.8978 289.316 39.5446 289.007 39.3648C288.668 39.1673 288.262 38.9027 287.812 38.5296C287.432 38.2155 287.079 37.7962 286.846 37.4494C286.641 37.1426 286.614 36.7685 286.525 36.3565C286.428 35.912 286.178 35.585 285.857 35.0711C285.55 34.5794 285.048 34.0943 284.686 33.6047C284.435 33.2644 284.326 32.9617 284.146 32.6526C283.962 32.3363 283.658 32.1129 283.324 31.7399C283.061 31.4472 282.758 31.1871 282.513 30.9159C282.208 30.5793 282.885 31.9031 282.923 32.3926C282.952 32.746 283.193 33.0357 283.309 33.3447C283.442 33.6991 283.784 33.9616 284.131 34.3219C284.39 34.5915 284.607 34.8875 284.762 35.2732C284.923 35.6735 285.096 36.0448 285.238 36.3538C285.39 36.6848 285.687 36.9707 285.842 37.2797C285.997 37.5881 286.253 37.8965 286.459 38.2696C286.632 38.5817 286.897 38.7453 287.089 39.0543C287.317 39.4193 287.514 39.7483 287.681 40.0573C287.843 40.3563 288.028 40.6742 288.182 40.9959C288.373 41.392 288.568 41.6772 288.774 41.9862C288.98 42.2952 289.287 42.6031 289.558 42.8866C289.669 43.0028 289.854 43.0413 289.893 43.0548C290.409 43.2317 289.239 42.3747 288.981 42.0529C288.666 41.6589 288.468 41.3963 288.223 41.1525C287.972 40.9031 287.695 40.8817 287.579 40.7922C287.296 40.5728 287.335 40.1372 287.155 39.6233C286.999 39.1759 286.872 38.8255 286.692 38.5038C286.49 38.1417 286.409 37.8225 286.114 36.8603C285.958 36.352 285.741 36.0479 285.369 35.5861C284.358 34.3307 284.094 33.3474 284.094 32.0651C284.093 31.3546 284.582 30.8275 284.736 30.5177C285.103 29.7782 286.381 29.2844 287.047 28.7837C287.914 28.1322 288.67 27.5098 289.233 27.0357C290.639 25.8522 291.598 25.5825 292.155 25.1685C292.337 25.033 292.656 24.8086 293.882 24.3356C294.844 23.9645 296.533 23.4298 297.501 23.1412C298.977 22.7009 299.522 22.6228 300.536 22.1988C302.006 21.5839 302.994 21.0272 303.356 20.9114C303.778 20.7764 304.204 20.4362 304.59 20.2942C305.083 20.1128 305.746 19.947 306.198 19.7672C306.586 19.6128 306.905 19.3297 307.764 19.0732C308.496 18.8548 309.192 18.5335 309.695 18.378C310.373 18.1686 311.225 18.2496 311.739 18.0312C312.248 17.8152 313.253 17.6585 313.976 17.4525C314.722 17.2402 315.287 17.0413 316.418 16.9379C316.609 16.9205 316.577 16.7851 316.5 16.7327C316.16 16.5004 315.781 16.8854 315.319 17.1038C314.619 17.4341 314.187 17.066 313.851 17.2068C313.255 17.4571 312.079 17.3993 311.294 17.5798C310.551 17.751 310.175 17.7851 309.75 17.863C309.216 17.961 308.76 18.0428 308.13 18.0817C307.701 18.1083 307.243 18.1971 306.882 18.3514C306.477 18.5248 306.034 18.4548 305.673 18.5316C305.346 18.6011 305.056 18.8143 304.734 18.9173C304.365 19.0355 304.053 19.123 303.45 19.1747C302.796 19.2307 302.305 19.5087 301.777 19.5477C301.419 19.5742 301.07 19.7911 300.722 19.9204C300.318 20.0706 299.836 20.0488 299.424 20.1005C298.931 20.1624 298.141 20.4346 297.188 20.653C296.73 20.7578 296.313 20.8713 295.631 21.1927C295.136 21.4261 294.563 21.6691 294.062 21.8743C293.347 22.1675 292.943 22.3373 292.378 22.492C291.685 22.6817 291.349 22.9036 290.757 23.1216C290.016 23.3949 289.549 23.7508 288.983 24.201C288.289 24.7518 287.85 25.0887 287.529 25.2569C287.106 25.478 286.642 25.7831 286.243 26.0921C285.903 26.3547 285.613 26.5809 285.355 26.8509C285.069 27.1509 284.764 27.3524 284.506 27.6225C284.132 28.0146 283.454 28.4573 283.066 28.8056C283.001 28.8639 282.912 28.8199 282.898 28.7686C282.778 28.3232 283.835 28.0237 285.949 27.2023C286.497 26.9895 286.864 26.9435 288.665 26.8532C290.465 26.7629 293.699 26.6611 298.458 26.1758C303.217 25.6905 309.405 24.8248 312.872 24.3788C316.339 23.9329 316.899 23.9329 317.477 23.9329" stroke="#79819D" stroke-width="5" stroke-linecap="round"/>
<path d="M297.879 49.7029C298.033 49.7284 298.34 49.831 298.675 49.9209C298.755 49.9423 298.728 50.1119 298.69 50.2156C298.651 50.3194 298.575 50.3958 298.51 50.397C298.445 50.3981 298.394 50.3217 298.406 50.2569C298.418 50.1921 298.495 50.1412 298.572 50.1404C298.907 50.1371 299.291 50.3202 299.652 50.4737C299.994 50.6189 300.269 50.834 300.77 50.873C301.199 50.9063 301.709 51.0393 302.364 51.1045C302.586 51.1265 303.732 51.1689 305.391 51.1562C306.241 51.1496 307.105 51.0146 307.689 50.9506C308.063 50.9096 308.676 50.8603 309.257 50.7962C310.142 50.6988 310.505 50.655 310.84 50.552C311.151 50.4564 311.457 50.3464 311.932 50.2561C312.396 50.1679 312.795 50.1921 312.911 50.1404C313.154 50.0322 312.462 50.4228 312.347 50.3977C312.284 50.3842 312.307 50.2199 312.358 50.1034C312.465 49.8592 312.692 49.7546 312.846 49.7033C313.314 49.5473 314.156 49.5749 314.684 49.4719C315.158 49.3796 315.674 49.2925 316.202 49.0865C316.567 48.9437 316.807 48.7015 317.166 48.4692C317.534 48.2316 318.166 48.0071 318.747 47.7752C319.714 47.3896 319.868 47.0287 319.971 46.9134C320.017 46.8614 319.972 46.7726 319.921 46.7587C319.626 46.6789 319.33 47.0272 319.021 47.1691C318.69 47.3212 318.404 47.6182 318.044 47.8632C317.735 48.0732 317.427 48.237 317.079 48.3778C316.717 48.5245 316.398 48.5965 316.089 48.6995C315.772 48.8054 315.472 49.0332 315.035 49.4186C314.725 49.625 314.367 49.7801 314.006 49.9977C313.928 50.0625 313.852 50.1134 313.773 50.1659" stroke="#79819D" stroke-width="5" stroke-linecap="round"/>
<path d="M317.862 45.228C317.964 45.1262 318.093 44.9973 318.26 44.8688C318.582 44.6207 319.018 44.8931 319.391 44.8939C319.957 44.8951 320.716 44.7141 321.614 44.2909C322.092 44.0657 322.413 43.8917 322.799 43.5576C323.166 43.2394 323.621 42.992 324.302 42.3374C324.803 41.8562 325.165 41.5523 326.14 40.5639C326.611 40.0874 326.786 39.7515 326.979 39.4297C327.208 39.0465 327.581 38.4429 328.046 37.8484C328.371 37.4318 328.791 37.0772 329.165 36.678C329.413 36.4128 329.487 36.048 329.654 35.7262C329.842 35.3632 330.027 35.045 330.335 34.6465C330.666 34.2178 330.9 33.7086 331.133 33.3471C331.326 33.046 331.568 32.5266 331.827 31.9336C332.084 31.3431 332.11 30.9557 332.213 30.6467C332.316 30.3377 332.47 29.8261 332.663 29.3354C332.811 28.9599 333.034 28.5392 333.664 27.832C334.222 27.2065 334.27 26.172 334.309 25.5428C334.334 25.1516 334.681 24.5039 334.977 23.845C335.147 23.4655 335.53 23.3419 335.684 23.1502C336.382 22.2812 336.172 20.9254 336.469 20.6291C336.714 20.3848 336.868 19.873 337.06 19.3692C337.115 19.2247 337.48 19.3036 337.586 19.3291C337.666 19.3482 337.13 19.4579 336.677 19.6115C336.261 19.7525 335.639 20.3035 334.789 20.6527C334.274 20.8638 333.861 21.1029 333.324 21.6009C332.194 22.6498 331.29 23.5456 330.777 23.8535C330.188 24.2073 329.745 24.3697 329.566 24.4341C328.65 24.7631 329.153 21.5689 329.064 21.0296C328.828 19.6131 328.073 18.7651 327.958 18.4433C327.808 18.0264 327.458 17.6339 327.263 17.2987C327.22 17.2238 327.174 17.1448 327.109 17.1182C326.832 17.0035 326.353 17.2204 325.671 17.0414C324.994 16.8635 323.989 16.7575 322.988 16.732C322.338 16.7155 321.979 16.5777 321.34 16.5391C318.922 16.393 318.304 16.6803 317.71 16.7571C317.239 16.818 316.174 16.9118 315.242 16.7837C314.399 16.6679 314.032 16.9874 313.62 17.1301C313.253 17.2573 312.926 17.2713 311.967 17.7069C310.507 18.3695 309.095 18.2998 308.62 18.4155C308.151 18.5298 307.426 18.532 306.78 18.5961C305.755 18.6977 305.288 18.404 304.197 18.3905C303.561 18.3826 303.05 18.5567 302.741 18.8268C302.459 19.0731 302.047 19.0968 301.725 19.2261C301.366 19.3705 301.044 19.4826 300.671 19.6118C300.328 19.7305 299.964 19.8175 299.322 19.8564C298.875 19.8836 298.575 20.0489 298.202 20.1519C298.111 20.177 298.035 20.2032 298.034 20.1909C298.007 19.9079 298.623 19.9209 298.958 19.78C299.323 19.6267 299.806 19.6385 300.115 19.4074C300.396 19.1977 300.809 19.2527 301.246 19.1624C302.179 18.9693 302.812 19.2264 303.292 19.2905C303.382 19.3026 303.484 19.3036 304.262 19.4182C305.04 19.5328 306.491 19.7619 307.659 19.9945C308.827 20.2272 309.667 20.4563 310.533 20.7781C311.398 21.0998 312.264 21.5072 313.359 22.1372C314.455 22.7671 315.753 23.6074 316.638 24.2184C317.524 24.8295 317.957 25.186 318.434 25.5351C318.912 25.8842 319.421 26.2152 320.053 26.564C321.401 27.3088 322.234 27.7638 322.324 28.0076C322.403 28.2212 322.618 28.5345 323.296 29.3015C323.784 29.8531 324.509 30.7813 325.131 31.4827C326.195 32.6814 326.914 33.2164 327.349 33.4471C328.328 33.9656 328.663 34.0142 329.368 34.0913C330.493 34.2144 330.823 34.4771 331.183 34.6056C331.271 34.6369 331.312 34.7333 331.326 34.8108C331.38 35.1216 331.109 35.4277 330.967 35.8007C330.836 36.145 330.542 36.3535 330.298 36.5345C330.013 36.746 329.848 37.0479 329.745 37.3569C329.642 37.6659 329.539 37.9738 329.424 38.2955C329.281 38.691 329.076 38.9768 328.961 39.3626C328.836 39.7764 328.562 40.057 328.28 40.2893C327.899 40.6023 327.482 41.06 327.212 41.369C326.94 41.6811 326.66 42.0631 326.274 42.2953C325.909 42.5153 325.58 42.6294 325.207 42.8994C324.891 43.1279 324.678 43.3747 324.447 43.6197C324.224 43.8561 323.959 44.1972 323.663 44.4044C323.387 44.5975 323.111 44.7388 322.776 45.0208C322.316 45.4086 322.159 45.7666 321.876 45.9861C321.607 46.1945 321.259 46.3329 320.95 46.4748C320.619 46.6269 320.333 46.873 320.1 47.079C320.099 47.1307 320.176 47.1816 320.253 47.1951C320.331 47.2086 320.407 47.1831 320.563 47.0026" stroke="#79819D" stroke-width="5" stroke-linecap="round"/>
<path d="M334.673 34.0421C334.562 34.1026 334.28 34.3242 334.076 34.5027C333.949 34.6134 333.974 34.7912 333.944 34.9232C333.915 35.0483 333.843 35.1663 333.731 35.3687C333.632 35.5489 333.559 35.683 333.468 35.8805C333.405 36.0169 333.326 36.139 333.275 36.3112C333.217 36.5077 333.103 36.7671 333.032 36.9496C332.976 37.0941 332.85 37.223 332.753 37.4509C332.649 37.6966 332.596 37.9015 332.5 38.0593C332.411 38.2052 332.424 38.4086 332.343 38.7475C332.295 38.9469 332.261 39.0576 332.256 39.0881C332.212 39.3525 332.656 38.4304 332.859 37.9661C332.941 37.7769 332.92 37.4729 332.965 37.1976C333.01 36.9224 333.081 36.6716 333.162 36.4371C333.243 36.2026 333.334 35.9919 333.48 35.6978C333.627 35.4037 333.828 35.0325 333.956 34.7711C334.234 34.2069 334.308 34.0531 334.525 33.4424C334.709 32.9248 334.895 32.5937 334.961 32.5026C335.126 32.2754 335.108 31.7635 335.159 31.5053C335.221 31.1917 335.432 30.7415 335.629 30.3263C335.773 30.0231 335.848 29.8277 335.889 29.6654C335.927 29.5125 335.95 29.3517 335.98 29.1992C336.014 29.0254 336.101 28.8252 336.167 28.6369C336.239 28.434 336.355 28.1759 336.431 28.0491C336.512 27.9142 336.608 27.7004 336.73 27.5626C336.829 27.4506 336.912 27.2037 336.983 27.0157C337.049 26.8431 337.095 26.6967 337.11 26.5344C337.126 26.369 337.206 26.2304 337.282 26.0836C337.403 25.8503 337.428 25.5628 337.823 24.915C338.053 24.5371 338.138 24.3262 338.234 24.1178C338.339 23.8928 338.371 23.7681 338.417 23.5657C338.457 23.3853 338.543 23.2313 338.599 23.0992C338.687 22.8926 338.918 22.6032 339.045 22.4256C339.168 22.2539 339.222 22.0962 339.263 21.9442C339.307 21.7799 339.374 21.6001 339.42 21.4174C339.479 21.1795 339.577 20.9818 339.638 20.8196C339.785 20.4269 339.85 19.989 339.876 19.8213C339.896 19.6911 339.932 19.4728 339.967 19.2944C340.003 19.1142 340.084 18.9451 340.139 18.7728C340.165 18.6618 340.185 18.5697 340.2 18.4388C340.205 18.3381 340.205 18.1675 340.236 17.9918" stroke="#53596E" stroke-linecap="round"/>
<path d="M296.527 18.6161C296.581 18.5692 296.683 18.5218 296.731 18.5257C296.826 18.5336 296.48 18.5765 296.386 18.6199C296.252 18.6814 296.056 18.6788 295.958 18.7102C295.845 18.7463 295.734 18.7886 295.608 18.871C295.495 18.9454 295.381 18.9695 295.278 18.9929C295.181 19.0151 295.074 19.0713 294.964 19.1107C294.828 19.1596 294.666 19.1891 294.525 19.2324C294.395 19.2721 294.289 19.3149 294.175 19.3463C294.063 19.3772 293.959 19.4718 293.865 19.5543C293.778 19.6304 293.661 19.6838 293.508 19.7233C293.334 19.7682 293.174 19.7706 293.064 19.794C292.966 19.8147 292.875 19.8723 292.758 19.9118C292.627 19.9554 292.483 19.9901 292.365 20.0569C292.265 20.1132 292.168 20.1631 292.074 20.1984C291.974 20.236 291.839 20.312 291.721 20.3633C291.622 20.406 291.517 20.4458 291.414 20.485C291.304 20.5272 291.164 20.6027 290.994 20.6383C290.865 20.6655 290.739 20.7285 290.637 20.76C290.532 20.7921 290.363 20.8619 290.229 20.9091C290.072 20.9641 289.931 21.105 289.539 21.2856C289.377 21.36 289.294 21.4429 289.192 21.4903C289.067 21.5482 288.949 21.5687 288.823 21.6081C288.692 21.6492 288.564 21.6709 288.466 21.7024C288.353 21.7385 288.242 21.7807 288.12 21.8241C287.993 21.8694 287.841 21.9456 287.739 21.9929C287.606 22.054 287.48 22.1421 287.362 22.2127C287.244 22.2833 287.049 22.3617 286.871 22.4288C286.738 22.479 286.562 22.4955 285.872 22.7812C285.643 22.876 285.548 22.9196 285.454 22.9902C285.341 23.0742 285.156 23.1317 285.014 23.1827C284.896 23.2253 284.771 23.2886 284.668 23.3515C284.534 23.4344 284.417 23.4851 284.268 23.583C284.158 23.6549 284.103 23.7753 283.997 23.8502C283.892 23.9242 283.711 24.011 283.452 24.1052C283.189 24.2005 283.114 24.3955 282.968 24.5449C282.919 24.5951 282.878 24.6551 282.823 24.7139C282.798 24.7406 282.783 24.7649 282.834 24.7614C283.164 24.7382 283.293 24.6084 283.501 24.491C283.722 24.3663 283.936 24.3257 284.075 24.2708C284.156 24.2384 284.313 24.2079 284.84 23.99C285.269 23.8125 285.981 23.3989 286.38 23.1792C286.78 22.9595 286.834 22.9206 286.878 22.8928C286.922 22.865 286.953 22.8494 286.938 22.857" stroke="#79819D" stroke-linecap="round"/>
<path d="M282.32 32.1397C282.25 32.1086 282.093 32.0143 281.908 31.971C281.765 31.9374 281.645 31.873 281.069 31.8608C280.946 31.8582 280.915 31.8725 280.887 31.8882C280.859 31.9038 280.836 31.9272 280.828 31.9586C280.81 32.0267 281.006 32.1157 281.2 32.3348C281.382 32.541 281.354 32.8378 281.365 33.0412C281.381 33.3087 281.424 33.4979 281.374 33.5257C281.096 33.6785 281.063 33.1928 280.985 33.0629C280.927 32.9665 280.836 32.8705 280.738 32.7957C280.626 32.7104 280.53 32.6194 280.443 32.5561C280.358 32.494 280.349 32.3522 280.313 32.2383C280.28 32.1324 280.215 32.0459 280.133 31.9516C280.05 31.8572 279.941 31.7943 279.803 31.6377C279.695 31.5142 279.626 31.4098 279.567 31.292C279.511 31.1796 279.415 31.0488 279.308 30.9385C279.233 30.8603 279.124 30.7972 279.022 30.7224C278.92 30.6484 278.849 30.5616 278.762 30.4907C278.675 30.4187 278.574 30.3651 278.476 30.2944C278.352 30.205 278.283 30.114 278.123 29.9218C278.015 29.7931 277.891 29.6819 277.793 29.619C277.685 29.5501 277.593 29.4387 277.49 29.3168C277.409 29.2206 277.286 29.156 277.18 29.0966C277.071 29.0357 276.972 28.9831 276.878 28.916C276.795 28.8577 276.713 28.857 276.689 28.8336C276.606 28.7517 276.9 28.6923 277.088 28.6176C277.266 28.5471 277.372 28.543 277.431 28.4646C277.513 28.3554 277.693 28.3154 277.823 28.272C277.952 28.2293 278.039 28.1349 278.141 28.0405C278.24 27.9497 278.4 27.7975 278.675 27.6519C278.86 27.5538 278.974 27.4672 279.084 27.3731C279.246 27.2339 279.351 27.1845 279.504 27.0981C279.623 27.0307 279.72 26.9489 279.881 26.8468C280.005 26.7677 280.167 26.7288 280.309 26.627C280.436 26.5358 280.505 26.3994 280.658 26.2657C280.751 26.1844 280.882 26.1558 280.98 26.1045C281.097 26.0433 281.188 25.9127 281.466 25.603C281.773 25.2607 282.052 25.1903 282.213 25.0915C282.346 25.0104 282.484 24.8911 282.712 24.6954C282.822 24.6006 283.079 24.4835 283.504 24.4393C283.725 24.4164 283.913 24.4434 284.188 24.451C284.246 24.4526 284.259 24.4976 284.267 24.5331C284.284 24.606 284.26 24.6786 284.228 24.7374C284.159 24.8671 283.658 25.0466 283.216 25.1381C282.981 25.1868 282.863 25.4165 282.65 25.5423C282.452 25.6599 282.367 25.9275 282.308 25.9393C282.15 25.971 281.991 25.9197 281.872 25.9121C281.696 25.9007 281.84 25.4664 281.852 25.1444C281.856 25.04 281.825 25.0555 281.798 25.0713C281.693 25.1316 281.652 25.236 281.586 25.3304C281.513 25.4331 281.347 25.425 281.213 25.468C281.07 25.5139 280.93 25.613 280.828 25.7347C280.708 25.8775 280.569 25.9739 280.459 26.0413C280.349 26.1083 280.177 26.1864 280.054 26.2493C279.906 26.3255 279.791 26.5003 279.728 26.6026C279.699 26.6508 279.681 26.7281 279.685 26.8222C279.687 26.8863 279.72 26.9326 279.759 26.9796C279.781 27.0053 279.814 27.0266 279.88 26.9959C280.066 26.9103 280.183 26.7759 280.254 26.7485C280.495 26.6546 280.889 26.815 281.063 26.7916C281.119 26.7839 281.149 26.7912 281.185 26.7877C281.312 26.7749 281.369 26.5797 281.479 26.5443C281.525 26.5293 281.557 26.5323 281.569 26.5479C281.598 26.5848 281.55 26.6654 281.507 26.7321C281.401 26.8961 280.901 27.1581 280.636 27.337C280.585 27.3711 280.545 27.4351 280.467 27.5328C280.342 27.689 280.262 28.0767 280.215 28.5162C280.192 28.7373 280.192 28.833 280.184 28.9152C280.175 29.0051 280.285 29.3021 280.434 29.7879C280.646 30.4803 280.584 30.5922 280.584 30.6432C280.584 30.6646 280.553 30.6709 280.522 30.671C280.329 30.6718 280.176 30.4122 279.495 30.3689C279.15 30.3469 278.983 30.2393 278.751 29.9894C278.273 29.4727 278.315 29.2422 278.217 29.1713C278.191 29.1527 278.158 29.14 278.13 29.1242C278.103 29.1084 278.079 29.0929 278.091 29.0537C278.152 28.8401 278.298 28.7946 278.404 28.7432C278.532 28.6812 278.706 28.6061 278.868 28.4922C278.992 28.4045 279.146 28.3545 279.257 28.3035C279.377 28.2478 279.586 28.1509 280.095 27.6338C280.198 27.5291 280.222 27.5143 280.223 27.5141C280.296 27.465 280.097 27.6863 279.976 27.8234C279.696 28.1402 279.579 28.2282 279.465 28.5842C279.311 29.0685 279.422 29.3426 279.402 29.4809C279.398 29.5085 279.398 29.5396 279.414 29.5556C279.429 29.5716 279.46 29.5716 279.492 29.5522C279.565 29.5073 279.618 29.4227 279.692 29.3756C279.731 29.3509 279.79 29.3596 279.826 29.3751C279.889 29.4027 279.901 29.4771 279.913 29.5397C279.93 29.6318 279.901 29.7127 279.866 29.7558C279.848 29.7775 279.823 29.7912 279.803 29.8109C279.526 29.7068 278.975 29.2663 278.837 29.1556C278.809 29.1397 278.786 29.132 278.786 29.124" stroke="#79819D" stroke-linecap="round"/>
<ellipse cx="167" cy="47.049" rx="33" ry="22.5" fill="white"/>
<ellipse cx="257" cy="50.049" rx="33" ry="22.5" fill="white"/>
<path d="M165.843 42.7184C165.727 42.7184 165.493 42.7764 165.2 42.9514C164.908 43.126 164.964 44.06 165.138 45.0271C165.341 46.1539 166.894 45.8236 168.094 45.8544C168.42 45.8627 168.709 45.7674 168.887 45.6504C169.201 45.4449 169.242 45.006 169.33 44.6262C169.522 43.7929 168.776 42.9576 168.102 42.3975C167.747 42.1023 167.251 42.1329 166.9 42.103C166.523 42.0708 166.254 42.5408 166.02 42.8916C165.567 43.5718 165.843 44.3572 165.988 44.7088C166.335 45.5503 167.83 44.6526 168.595 44.1277C168.771 44.0074 168.772 43.7769 168.744 43.6002C168.684 43.2257 168.306 42.954 167.868 42.7782C167.617 42.6774 167.256 42.7184 167.048 42.8055C166.84 42.8925 166.782 43.0666 166.752 43.4464C166.722 43.8262 166.722 44.4064 166.954 44.7053C167.186 45.0042 167.65 45.0042 167.977 44.9462C168.498 44.8535 168.83 44.5946 169.065 44.4196C169.171 44.3409 169.068 44.1286 168.951 44.0099C168.712 43.7674 168.306 43.7734 167.984 43.8605C167.819 43.9052 167.721 44.1216 167.632 44.1242C167.485 43.9528 167.425 43.5413 167.454 43.2767C167.483 43.2442 167.541 43.4182 167.601 43.9493" stroke="#FF0000" stroke-linecap="round"/>
<path d="M257.803 45.8834C257.453 45.9414 256.926 46.0593 256.633 46.1463C256.331 46.2361 256.281 46.7608 256.105 47.3147C255.988 47.6812 256.045 48.2747 256.451 48.5737C257.462 49.3173 258.681 48.8146 259.031 48.6976C259.729 48.4651 260.087 47.8774 260.38 47.6145C260.521 47.4884 260.557 47.2936 260.471 47.0879C260.07 46.1314 258.805 46.2351 257.924 46.0891C257.69 46.0505 257.399 46.0593 257.191 46.1753C256.777 46.4073 256.748 47.3428 256.835 48.28C256.869 48.6458 257.096 48.753 257.273 48.7838C257.62 48.8441 257.919 48.3486 258.796 47.4395C258.99 47.2381 259.206 47.2901 259.18 47.2611C258.718 46.7523 257.807 46.9982 257.073 47.0255C256.352 47.0522 257.977 48.2853 258.328 48.4031C258.678 48.5206 259.032 48.0532 259.325 47.7903C259.598 47.5456 259.678 47.116 259.766 46.8232C259.802 46.7067 259.565 46.6465 259.359 46.6166C259.154 46.5868 258.922 46.5868 258.744 46.6738C258.566 46.7608 258.45 46.9349 258.391 47.1116C258.331 47.2883 258.331 47.4624 258.331 47.6417" stroke="#FF0000" stroke-linecap="round"/>
<rect x="0.5" y="98.049" width="78" height="33" fill="#B95555" stroke="black"/>
<rect x="79.5" y="98.049" width="78" height="33" fill="#B95555" stroke="black"/>
<rect x="158.5" y="98.049" width="78" height="33" fill="#B95555" stroke="black"/>
<rect x="36.5" y="132.049" width="78" height="33" fill="#B95555" stroke="black"/>
<rect x="115.5" y="132.049" width="78" height="33" fill="#B95555" stroke="black"/>
<rect x="194.5" y="132.049" width="78" height="33" fill="#B95555" stroke="black"/>
<rect x="237.5" y="98.049" width="78" height="33" fill="#B95555" stroke="black"/>
<rect x="316.5" y="98.049" width="78" height="33" fill="#B95555" stroke="black"/>
<rect x="36.5" y="200.049" width="78" height="33" fill="#B95555" stroke="black"/>
<rect x="115.5" y="200.049" width="78" height="33" fill="#B95555" stroke="black"/>
<rect x="194.5" y="200.049" width="78" height="33" fill="#B95555" stroke="black"/>
<rect x="273.5" y="200.049" width="78" height="33" fill="#B95555" stroke="black"/>
<rect x="0.5" y="166.049" width="78" height="33" fill="#B95555" stroke="black"/>
<rect x="79.5" y="166.049" width="78" height="33" fill="#B95555" stroke="black"/>
<rect x="158.5" y="166.049" width="78" height="33" fill="#B95555" stroke="black"/>
<rect x="237.5" y="166.049" width="78" height="33" fill="#B95555" stroke="black"/>
<rect x="316.5" y="166.049" width="78" height="33" fill="#B95555" stroke="black"/>
<rect x="36.5" y="200.049" width="78" height="33" fill="#B95555" stroke="black"/>
<rect x="115.5" y="200.049" width="78" height="33" fill="#B95555" stroke="black"/>
<rect x="194.5" y="200.049" width="78" height="33" fill="#B95555" stroke="black"/>
<rect x="273.5" y="200.049" width="78" height="33" fill="#B95555" stroke="black"/>
<rect x="352.5" y="200.049" width="42" height="33" fill="#B95555" stroke="black"/>
<rect x="352.5" y="132.049" width="42" height="33" fill="#B95555" stroke="black"/>
<rect x="273.5" y="132.049" width="78" height="33" fill="#B95555" stroke="black"/>
<rect x="0.5" y="200.049" width="35" height="33" fill="#B95555" stroke="black"/>
<rect x="0.5" y="132.049" width="35" height="33" fill="#B95555" stroke="black"/>
<path d="M49.197 98.0427C48.4968 98.2749 46.8606 99.4431 45.0978 100.56C43.5863 101.518 42.9831 103.314 42.5133 105.131C41.9854 107.174 41.1111 108.824 40.1101 110.411C39.1383 111.951 38.7607 113.518 37.7068 115.861C36.8823 117.695 36.0654 119.148 36.0003 122.543C35.9862 123.278 36.5228 123.49 36.9345 123.609C37.3462 123.729 37.8106 123.729 38.2821 123.555C40.2101 122.843 41.0971 120.689 41.9803 118.87C44.3761 113.935 43.3349 107.198 42.9233 104.915C42.7874 104.161 42.8634 103.222 43.0376 102.686C43.2118 102.149 43.5601 102.033 43.9138 102.031C44.2674 102.029 44.6157 102.145 44.8532 102.379C46.0158 103.525 45.6784 106.241 45.2702 107.89C44.8165 109.722 42.9831 111.055 42.2213 112.464C41.4534 113.884 41.2237 115.861 41.1622 117.974C41.1135 119.645 41.9204 122.188 42.918 123.959C43.6404 125.243 45.6713 125.017 46.4965 126.013C46.6846 126.24 47.0788 126.192 47.4324 126.018C48.2175 125.631 48.7255 124.672 49.1355 123.794C50.4077 121.069 49.3167 115.186 48.8469 112.77C48.4442 110.699 48.1414 108.961 48.0253 107.552C47.9939 107.171 47.677 107.536 47.5573 108.064C47.0483 110.31 46.8536 112.223 47.1421 114.222C47.446 116.326 49.3096 117.972 51.1253 120.67C52.2028 122.27 52.5961 123.722 53.474 125.015C54.3293 126.275 55.879 126.308 56.581 126.368C58.1373 126.501 58.6939 124.32 59.1637 123.268C61.0027 119.149 53.7784 113.884 52.9532 112.475C52.097 111.012 51.3153 109.894 51.0725 104.864C51.0315 104.014 51.4208 104.369 51.6566 104.723C52.1246 105.425 52.3638 107.061 52.4219 108.822C52.4475 109.599 54.3484 105.221 54.6527 100.696C54.706 99.9041 54.1302 99.6894 53.9508 101.253C53.3883 106.156 54.1197 109.887 54.7636 110.413C56.246 111.624 57.4026 113.518 58.1081 114.811C58.4344 115.409 59.1654 115.633 59.3414 116.335C59.592 117.335 58.9367 110.365 58.5813 108.956C58.1816 107.371 57.7615 105.791 57.5838 103.213C57.467 101.519 56.2414 100.393 54.8903 99.1036C54.5947 98.75 54.3625 98.4016 54.1848 98.048C54.0071 97.6944 53.8909 97.346 53.0676 97.6908" stroke="#BA937B" stroke-width="8" stroke-linecap="round"/>
<path d="M339.265 98.0427C339.965 98.2749 341.602 99.4431 343.364 100.56C344.876 101.518 345.479 103.314 345.949 105.131C346.477 107.174 347.351 108.824 348.352 110.411C349.324 111.951 349.702 113.518 350.755 115.861C351.58 117.695 352.397 119.148 352.462 122.543C352.476 123.278 351.939 123.49 351.528 123.609C351.116 123.729 350.652 123.729 350.18 123.555C348.252 122.843 347.365 120.689 346.482 118.87C344.086 113.935 345.127 107.198 345.539 104.915C345.675 104.161 345.599 103.222 345.425 102.686C345.25 102.149 344.902 102.033 344.549 102.031C344.195 102.029 343.847 102.145 343.609 102.379C342.446 103.525 342.784 106.241 343.192 107.89C343.646 109.722 345.479 111.055 346.241 112.464C347.009 113.884 347.239 115.861 347.3 117.974C347.349 119.645 346.542 122.188 345.544 123.959C344.822 125.243 342.791 125.017 341.966 126.013C341.778 126.24 341.383 126.192 341.03 126.018C340.245 125.631 339.737 124.672 339.327 123.794C338.055 121.069 339.146 115.186 339.615 112.77C340.018 110.699 340.321 108.961 340.437 107.552C340.468 107.171 340.785 107.536 340.905 108.064C341.414 110.31 341.609 112.223 341.32 114.222C341.016 116.326 339.153 117.972 337.337 120.67C336.259 122.27 335.866 123.722 334.988 125.015C334.133 126.275 332.583 126.308 331.881 126.368C330.325 126.501 329.768 124.32 329.299 123.268C327.46 119.149 334.684 113.884 335.509 112.475C336.365 111.012 337.147 109.894 337.39 104.864C337.431 104.014 337.041 104.369 336.806 104.723C336.338 105.425 336.098 107.061 336.04 108.822C336.015 109.599 334.114 105.221 333.81 100.696C333.756 99.9041 334.332 99.6894 334.512 101.253C335.074 106.156 334.343 109.887 333.699 110.413C332.216 111.624 331.06 113.518 330.354 114.811C330.028 115.409 329.297 115.633 329.121 116.335C328.87 117.335 329.526 110.365 329.881 108.956C330.281 107.371 330.701 105.791 330.878 103.213C330.995 101.519 332.221 100.393 333.572 99.1036C333.868 98.75 334.1 98.4016 334.278 98.048C334.455 97.6944 334.571 97.346 335.395 97.6908" stroke="#BA937B" stroke-width="8" stroke-linecap="round"/>
</svg>
